{"glyphs":{"0":{"ha":967,"x_min":42,"x_max":894,"o":"m 224 557 l 224 417 q 244 301 224 353 q 300 218 265 250 q 378 169 335 186 q 468 151 422 151 q 558 169 514 151 q 636 218 601 186 q 692 301 671 250 q 713 417 713 353 l 713 557 q 685 685 713 628 q 615 771 658 742 q 520 814 572 800 q 416 814 468 828 q 321 772 364 800 q 251 686 278 743 q 224 557 224 629 m 42 417 l 42 557 q 78 747 42 663 q 175 884 115 832 q 311 965 235 936 q 468 992 388 993 q 625 964 549 992 q 761 884 701 936 q 858 747 821 832 q 894 557 894 661 l 894 417 q 858 227 894 313 q 761 90 821 142 q 625 10 701 38 q 468 -19 549 -18 q 311 9 388 -19 q 175 90 235 38 q 78 226 115 142 q 42 417 42 311 z "},"1":{"ha":513,"x_min":7,"x_max":475,"o":"m 13 0 l 13 156 l 158 156 l 158 806 l 7 806 l 7 972 l 340 972 l 340 156 l 475 156 l 475 0 l 13 0 z "},"2":{"ha":910,"x_min":51,"x_max":839,"o":"m 238 690 l 56 690 q 169 909 57 833 q 431 985 281 985 q 577 968 508 985 q 706 917 646 951 q 801 820 765 882 q 836 675 836 758 q 805 526 836 586 q 716 435 774 465 q 594 392 658 404 q 446 381 531 381 q 354 372 397 381 q 273 333 311 364 q 235 254 235 303 l 235 171 l 839 171 l 839 0 l 51 0 l 51 256 q 85 394 51 336 q 178 485 119 453 q 303 531 236 517 q 446 546 369 546 q 654 671 654 546 q 593 787 654 747 q 433 826 532 826 q 297 790 356 826 q 238 690 239 753 z "},"3":{"ha":908,"x_min":15,"x_max":824,"o":"m 424 424 l 272 424 l 272 574 l 413 574 q 557 601 499 574 q 617 690 615 628 q 569 781 617 742 q 417 819 522 819 q 326 809 369 819 q 248 770 282 799 q 214 700 214 742 l 31 700 q 92 866 31 799 q 237 960 153 933 q 418 986 321 986 q 685 910 571 986 q 800 690 799 835 q 763 574 800 629 q 665 499 726 518 q 778 417 733 476 q 824 294 824 357 q 799 172 824 226 q 733 83 774 117 q 638 26 693 49 q 528 -5 583 4 q 413 -14 472 -14 q 272 2 339 -14 q 145 52 204 18 q 51 146 86 86 q 15 285 15 206 l 200 285 q 269 184 200 218 q 414 150 339 150 q 563 186 496 150 q 631 293 631 222 q 424 424 631 424 z "},"4":{"ha":943,"x_min":43,"x_max":874,"o":"m 481 971 l 760 971 l 760 363 l 874 363 l 874 185 l 760 185 l 760 0 l 579 0 l 579 185 l 60 185 l 43 371 l 481 971 m 250 363 l 579 363 l 579 813 l 250 363 z "},"5":{"ha":874,"x_min":50,"x_max":829,"o":"m 775 971 l 775 799 l 250 799 l 250 628 l 439 628 q 588 610 519 628 q 711 558 656 593 q 798 460 767 522 q 829 315 829 397 q 718 74 829 158 q 449 -11 607 -11 q 162 61 272 -11 q 50 293 51 133 l 232 293 q 297 190 232 221 q 446 158 361 158 q 585 197 524 158 q 647 315 647 236 q 588 424 649 390 q 439 457 526 457 l 71 457 l 71 971 l 775 971 z "},"6":{"ha":919,"x_min":40,"x_max":849,"o":"m 222 668 l 222 674 l 222 528 q 319 603 253 575 q 447 631 385 631 q 593 613 525 631 q 720 560 661 596 q 814 459 779 524 q 849 307 849 394 q 728 70 849 156 q 446 -15 607 -15 q 252 19 342 -15 q 101 130 163 54 q 40 310 40 206 l 40 672 q 158 908 40 825 q 440 990 276 990 q 726 919 613 990 q 839 703 839 847 l 656 703 q 592 798 656 764 q 443 832 528 832 q 289 788 356 833 q 222 668 222 743 m 446 149 q 603 190 539 149 q 667 307 667 231 q 605 428 667 385 q 447 471 543 471 q 285 428 350 471 q 222 307 221 385 q 287 190 224 231 q 446 149 350 149 z "},"7":{"ha":792,"x_min":28,"x_max":751,"o":"m 315 0 l 104 0 l 501 797 l 28 797 l 28 972 l 742 972 l 751 875 l 315 0 z "},"8":{"ha":943,"x_min":26,"x_max":869,"o":"m 447 429 q 288 394 354 429 q 219 290 221 358 q 279 188 218 231 q 447 144 340 144 q 615 187 554 144 q 675 290 676 229 q 610 394 674 358 q 447 429 546 429 m 28 293 q 67 414 29 354 q 176 501 106 474 q 54 693 54 567 q 167 911 54 833 q 446 989 279 989 q 728 910 613 989 q 844 693 844 832 q 813 586 844 638 q 719 510 781 535 q 827 419 789 482 q 867 293 865 356 q 747 56 869 135 q 446 -22 625 -24 q 242 8 333 -21 q 88 111 150 38 q 28 293 26 185 m 242 699 q 303 600 243 638 q 447 563 364 563 q 592 599 533 563 q 653 699 651 636 q 597 798 654 760 q 446 836 539 836 q 294 794 349 836 q 242 699 239 753 z "},"9":{"ha":938,"x_min":40,"x_max":849,"o":"m 667 307 l 667 301 l 667 447 q 570 372 636 400 q 442 344 504 344 q 296 362 364 344 q 169 415 228 379 q 75 516 110 451 q 40 668 40 581 q 161 905 40 819 q 443 990 282 990 q 637 956 547 990 q 788 845 726 921 q 849 665 849 769 l 849 303 q 731 67 849 150 q 449 -15 613 -15 q 249 13 338 -15 q 103 108 161 42 q 44 272 44 175 l 228 272 q 294 177 228 211 q 446 143 360 143 q 600 187 533 142 q 667 307 667 232 m 443 826 q 286 785 350 826 q 222 668 222 744 q 284 547 222 590 q 442 504 346 504 q 603 547 539 504 q 667 668 668 590 q 602 785 665 744 q 443 826 539 826 z "},"\u0000":{"ha":281,"x_min":0,"x_max":0,"o":""}," ":{"ha":281,"x_min":0,"x_max":0,"o":""},"!":{"ha":413,"x_min":83,"x_max":306,"o":"m 103 971 l 285 971 l 285 254 l 103 254 l 103 971 m 139 3 q 111 17 139 3 q 83 100 83 31 q 139 198 83 169 q 250 198 194 226 q 306 100 306 169 q 250 3 306 31 q 139 3 194 -25 z "},"\"":{"ha":603,"x_min":89,"x_max":492,"o":"m 89 969 l 243 969 l 243 597 l 89 597 l 89 969 m 336 969 l 492 969 l 492 597 l 336 597 l 336 969 z "},"#":{"ha":1001,"x_min":19,"x_max":892,"o":"m 319 972 l 506 972 l 454 764 l 606 764 l 658 972 l 843 972 l 792 764 l 892 764 l 892 603 l 751 603 l 686 350 l 796 350 l 796 188 l 649 188 l 603 0 l 417 0 l 463 188 l 310 188 l 264 0 l 79 0 l 125 188 l 19 188 l 19 350 l 167 350 l 231 604 l 115 604 l 115 764 l 268 764 l 319 972 m 581 615 l 406 615 l 336 340 l 511 340 l 581 615 z "},"$":{"ha":1079,"x_min":50,"x_max":921,"o":"m 881 808 l 731 739 q 636 814 704 783 q 496 844 568 844 q 338 813 400 844 q 275 714 275 782 q 292 658 275 681 q 347 623 310 636 q 415 604 383 610 q 501 592 447 599 q 589 579 554 585 q 672 563 624 574 q 752 538 721 551 q 819 501 783 524 q 874 449 854 478 q 908 379 894 421 q 921 286 921 338 q 825 72 921 153 q 592 -19 729 -10 l 592 -158 l 415 -158 l 415 -26 q 194 44 290 -15 q 50 211 97 103 l 214 281 q 322 175 242 215 q 490 135 401 135 q 662 172 593 135 q 731 286 731 210 q 486 426 731 397 q 367 443 414 435 q 263 471 321 451 q 172 519 206 490 q 116 598 139 549 q 93 714 93 647 q 186 911 93 840 q 415 999 279 982 l 415 1119 l 592 1119 l 592 999 q 881 808 803 967 z "},"%":{"ha":1075,"x_min":40,"x_max":1026,"o":"m 265 990 q 376 966 328 990 q 450 903 425 942 q 487 819 475 865 q 487 726 499 772 q 450 641 475 679 q 376 578 425 603 q 265 554 328 554 q 140 587 193 554 q 64 667 88 619 q 40 772 40 715 q 64 877 40 829 q 140 958 88 925 q 265 990 193 990 m 747 974 l 943 974 l 304 -1 l 107 -1 l 747 974 m 682 402 q 706 414 682 402 q 793 426 731 426 q 904 402 856 426 q 978 340 953 378 q 1015 255 1003 301 q 1015 162 1026 208 q 978 77 1003 115 q 904 15 953 39 q 793 -10 856 -10 q 682 15 731 -10 q 608 77 633 39 q 572 162 583 115 q 572 255 560 208 q 608 340 583 301 q 682 402 633 378 m 859 270 q 847 284 859 270 q 793 299 835 299 q 727 270 751 299 q 703 208 703 242 q 727 145 703 174 q 793 117 751 117 q 859 145 835 117 q 883 208 883 174 q 859 270 883 242 m 331 835 q 319 850 331 835 q 265 864 307 864 q 199 835 224 864 q 175 773 175 807 q 199 710 175 739 q 265 682 224 682 q 331 710 307 682 q 356 773 356 739 q 331 835 356 807 z "},"&":{"ha":1007,"x_min":78,"x_max":925,"o":"m 453 425 q 309 385 360 425 q 258 294 258 344 q 317 187 258 222 q 461 151 376 151 q 595 185 526 151 q 664 285 664 219 l 664 425 l 453 425 m 838 425 l 838 283 q 859 208 838 238 q 925 178 881 178 l 925 -4 q 742 124 776 -4 q 464 -12 658 -12 q 78 296 79 -12 q 119 417 78 358 q 228 499 161 476 q 132 576 167 518 q 97 696 97 633 q 156 862 97 793 q 294 959 214 931 q 468 988 375 988 q 596 974 536 988 q 708 929 656 960 q 792 843 761 899 q 824 713 824 788 l 650 713 q 598 803 650 775 q 464 832 546 832 q 320 790 367 832 q 275 696 274 747 q 336 600 275 631 q 463 569 397 569 l 918 569 l 918 425 l 838 425 z "},"'":{"ha":297,"x_min":63,"x_max":217,"o":"m 63 971 l 217 971 l 217 599 l 63 599 l 63 971 z "},"(":{"ha":481,"x_min":40,"x_max":451,"o":"m 367 1076 l 451 963 q 276 739 336 871 q 215 457 215 607 q 451 -44 215 142 l 360 -168 q 122 103 203 -65 q 40 457 40 272 q 124 804 40 638 q 367 1076 208 971 z "},")":{"ha":493,"x_min":17,"x_max":428,"o":"m 17 963 l 101 1076 q 344 804 260 971 q 428 457 428 638 q 347 103 428 272 q 108 -168 265 -65 l 19 -42 q 253 457 253 142 q 192 739 253 607 q 17 963 132 871 z "},"*":{"ha":476,"x_min":-7,"x_max":443,"o":"m 407 649 l 303 571 l 219 692 l 138 571 l 32 649 l 124 757 l -7 783 l 32 913 l 160 864 l 153 994 l 285 994 l 271 861 l 407 913 l 443 783 l 310 757 l 407 649 z "},"+":{"ha":650,"x_min":21,"x_max":600,"o":"m 21 560 l 225 560 l 225 767 l 393 767 l 393 560 l 600 560 l 600 406 l 393 406 l 393 197 l 225 197 l 225 406 l 21 406 l 21 560 z "},",":{"ha":346,"x_min":60,"x_max":257,"o":"m 257 72 q 194 -136 257 56 l 99 -136 l 125 1 q 60 76 60 13 q 109 160 60 136 q 208 158 158 183 q 257 72 257 132 z "},"-":{"ha":636,"x_min":49,"x_max":561,"o":"m 49 375 l 49 531 l 561 531 l 561 375 l 49 375 z "},".":{"ha":336,"x_min":51,"x_max":251,"o":"m 83 14 q 67 27 83 14 q 51 88 51 40 q 83 161 51 135 q 151 188 114 188 q 220 161 189 188 q 251 88 251 135 q 220 14 251 40 q 151 -12 189 -12 q 83 14 114 -12 z "},"/":{"ha":632,"x_min":-17,"x_max":624,"o":"m 446 1064 l 624 1064 l 160 -114 l -17 -114 l 446 1064 z "},":":{"ha":329,"x_min":63,"x_max":260,"o":"m 112 1 q 87 14 112 1 q 63 88 63 26 q 112 174 63 149 q 210 174 161 200 q 260 88 260 149 q 210 1 260 26 q 112 1 161 -24 m 112 404 q 87 417 112 404 q 63 490 63 429 q 112 577 63 551 q 210 577 161 603 q 260 490 260 551 q 210 404 260 429 q 112 404 161 379 z "},";":{"ha":361,"x_min":60,"x_max":260,"o":"m 112 404 q 87 417 112 404 q 63 490 63 429 q 112 577 63 551 q 210 577 161 603 q 260 490 260 551 q 210 404 260 429 q 112 404 161 379 m 257 72 q 194 -136 257 56 l 99 -136 l 125 1 q 60 76 60 13 q 109 160 60 136 q 208 158 158 183 q 257 72 257 132 z "},"<":{"ha":538,"x_min":26,"x_max":456,"o":"m 236 436 l 456 226 l 456 218 l 346 110 l 26 426 l 26 447 l 346 764 l 456 656 l 456 647 l 236 436 z "},"=":{"ha":593,"x_min":28,"x_max":535,"o":"m 28 229 l 28 382 l 535 382 l 535 229 l 28 229 m 28 471 l 28 625 l 535 625 l 535 471 l 28 471 z "},">":{"ha":551,"x_min":54,"x_max":483,"o":"m 54 226 l 274 436 l 54 647 l 54 656 l 164 764 l 483 447 l 483 426 l 164 110 l 54 218 l 54 226 z "},"?":{"ha":861,"x_min":36,"x_max":781,"o":"m 313 7 q 285 21 313 7 q 257 104 257 35 q 313 202 257 174 q 424 202 368 231 q 479 104 479 174 q 424 7 479 35 q 313 7 368 -21 m 222 681 l 36 681 q 143 902 38 826 q 407 978 249 978 q 592 949 510 978 q 727 853 674 921 q 779 685 781 785 q 760 585 779 628 q 708 515 742 542 q 643 472 675 489 q 572 438 611 456 q 514 408 532 421 q 461 279 461 374 l 461 272 l 278 272 l 278 281 q 290 397 278 349 q 328 475 303 444 q 374 519 354 506 q 431 553 394 533 q 485 577 447 561 q 540 603 522 593 q 573 635 557 613 q 589 686 589 657 q 404 818 589 818 q 278 781 333 818 q 222 681 224 743 z "},"@":{"ha":1326,"x_min":60,"x_max":1231,"o":"m 643 758 q 345 645 474 758 q 217 338 217 532 q 253 148 217 229 q 351 22 289 67 q 484 -45 413 -24 q 636 -67 556 -67 q 833 -18 753 -67 l 897 -139 q 632 -208 779 -208 q 463 -189 544 -208 q 308 -126 382 -169 q 180 -21 235 -83 q 92 134 125 42 q 60 338 60 226 q 108 578 60 469 q 239 755 157 686 q 425 860 321 824 q 643 897 529 897 q 1067 756 904 897 q 1231 349 1231 614 q 1164 83 1231 181 q 976 -14 1097 -14 q 880 17 924 -14 q 836 118 836 47 q 753 28 815 60 q 636 -4 690 -4 q 383 92 485 -4 q 281 338 281 188 q 383 585 281 486 q 635 683 486 683 q 748 652 692 683 q 828 576 804 621 l 839 647 l 969 629 l 969 153 q 978 129 969 136 q 997 125 986 122 q 1053 200 1032 133 q 1075 349 1075 267 q 643 758 1075 758 m 639 536 q 495 477 547 536 q 443 339 443 418 q 494 201 443 258 q 638 144 544 144 q 779 202 729 144 q 829 346 829 260 q 781 483 829 429 q 639 536 732 536 z "},"A":{"ha":1040,"x_min":-32,"x_max":1040,"o":"m 840 0 l 758 183 l 250 183 l 167 0 l -32 0 l 404 972 l 604 972 l 1040 0 l 840 0 m 685 354 l 504 768 l 324 354 l 685 354 z "},"B":{"ha":949,"x_min":63,"x_max":888,"o":"m 243 421 l 243 171 l 524 171 q 605 180 567 171 q 674 217 643 189 q 706 288 706 244 q 647 385 706 349 q 524 421 588 421 l 243 421 m 243 806 l 243 582 l 524 582 q 676 686 676 582 q 639 767 676 729 q 524 806 601 806 l 243 806 m 524 972 q 767 901 675 972 q 858 690 858 831 q 732 503 858 560 q 848 412 808 479 q 888 286 888 344 q 524 0 888 0 l 63 0 l 63 972 l 524 972 z "},"C":{"ha":917,"x_min":40,"x_max":925,"o":"m 800 249 l 925 122 q 556 -22 779 -22 q 324 20 425 -22 q 162 134 222 63 q 71 293 101 206 q 40 479 40 381 q 72 667 40 576 q 165 831 103 757 q 328 948 226 904 q 556 992 429 992 q 913 843 761 992 l 790 725 q 556 817 697 817 q 306 716 392 817 q 221 479 219 615 q 306 247 222 343 q 556 150 389 150 q 687 176 621 150 q 800 249 753 201 z "},"D":{"ha":976,"x_min":56,"x_max":925,"o":"m 438 972 q 653 932 558 972 q 805 823 747 892 q 892 671 863 754 q 924 494 922 588 q 897 313 925 400 q 810 156 868 226 q 656 42 753 85 q 438 0 560 0 l 56 0 l 56 972 l 438 972 m 238 799 l 238 176 l 438 176 q 668 270 592 176 q 742 496 744 364 q 662 710 739 622 q 438 799 585 799 l 238 799 z "},"E":{"ha":867,"x_min":65,"x_max":793,"o":"m 793 181 l 793 0 l 65 0 l 65 972 l 793 972 l 793 794 l 247 794 l 247 571 l 774 571 l 774 400 l 247 400 l 247 181 l 793 181 z "},"F":{"ha":825,"x_min":68,"x_max":767,"o":"m 251 0 l 68 0 l 68 971 l 767 971 l 767 794 l 251 794 l 251 529 l 739 529 l 739 360 l 251 360 l 251 0 z "},"G":{"ha":1013,"x_min":29,"x_max":931,"o":"m 904 851 l 790 735 q 676 806 743 781 q 543 832 608 832 q 299 730 390 832 q 208 474 208 628 q 292 244 208 339 q 543 149 375 149 q 763 226 665 149 l 763 399 l 514 399 l 514 563 l 931 563 l 931 153 q 543 -22 778 -22 q 310 19 411 -22 q 149 131 208 60 q 59 288 89 201 q 29 474 29 375 q 85 732 29 615 q 259 924 140 849 q 543 1000 378 1000 q 904 851 753 1000 z "},"H":{"ha":1017,"x_min":69,"x_max":913,"o":"m 913 -1 l 731 -1 l 731 392 l 253 392 l 253 -1 l 69 -1 l 69 971 l 253 971 l 253 561 l 731 561 l 731 971 l 913 971 l 913 -1 z "},"I":{"ha":356,"x_min":69,"x_max":251,"o":"m 251 0 l 69 0 l 69 972 l 251 972 l 251 0 z "},"J":{"ha":988,"x_min":29,"x_max":883,"o":"m 883 972 l 883 415 q 768 101 883 222 q 456 -19 653 -19 q 147 92 264 -19 q 29 404 29 203 l 210 404 q 456 153 210 153 q 638 226 575 153 q 700 415 700 299 l 700 801 l 407 801 l 407 972 l 883 972 z "},"K":{"ha":910,"x_min":68,"x_max":885,"o":"m 849 972 l 849 967 l 417 501 l 885 11 l 885 0 l 658 0 l 251 431 l 251 0 l 68 0 l 68 972 l 251 972 l 251 561 l 621 972 l 849 972 z "},"L":{"ha":813,"x_min":68,"x_max":751,"o":"m 68 972 l 251 972 l 251 169 l 751 169 l 751 0 l 68 0 l 68 972 z "},"M":{"ha":1203,"x_min":69,"x_max":1099,"o":"m 915 -1 l 915 704 l 599 282 l 563 282 l 253 706 l 253 -1 l 69 -1 l 69 971 l 281 971 l 585 553 l 889 971 l 1099 971 l 1099 -1 l 915 -1 z "},"N":{"ha":990,"x_min":82,"x_max":890,"o":"m 707 369 l 707 974 l 890 974 l 890 0 l 776 0 l 776 -1 l 265 656 l 265 0 l 82 0 l 82 972 l 231 972 l 707 369 z "},"O":{"ha":1090,"x_min":25,"x_max":1025,"o":"m 525 992 q 801 916 685 992 q 972 726 918 840 q 1024 481 1025 613 q 992 295 1022 383 q 902 135 961 207 q 746 21 843 64 q 525 -22 649 -22 q 303 19 401 -22 q 146 133 206 61 q 56 292 86 204 q 25 479 25 381 q 57 668 25 578 q 149 831 89 758 q 306 948 208 904 q 525 992 404 992 m 525 825 q 341 771 417 825 q 234 640 265 717 q 206 476 203 564 q 288 243 210 340 q 525 146 367 146 q 762 244 683 146 q 843 478 840 342 q 826 601 844 542 q 772 713 808 661 q 671 794 735 764 q 525 825 607 825 z "},"P":{"ha":939,"x_min":68,"x_max":882,"o":"m 251 799 l 251 454 l 526 454 q 657 508 610 454 q 703 626 704 561 q 656 745 703 692 q 526 799 610 799 l 251 799 m 526 974 q 724 923 640 974 q 844 796 807 872 q 882 630 882 719 q 844 464 882 540 q 724 337 807 388 q 526 286 640 286 l 251 286 l 251 0 l 68 0 l 68 972 q 297 973 144 972 q 526 974 450 974 z "},"Q":{"ha":1086,"x_min":22,"x_max":1046,"o":"m 301 953 q 350 974 301 953 q 522 996 399 996 q 743 953 646 996 q 899 840 840 911 q 988 683 957 769 q 1021 499 1019 596 q 931 182 1024 315 l 1046 68 l 917 -61 l 799 56 q 522 -17 686 -17 q 299 26 397 -17 q 142 142 201 69 q 53 302 83 214 q 22 488 22 390 q 53 674 22 585 q 143 837 83 764 q 301 953 203 910 m 667 802 q 635 816 667 802 q 522 831 604 831 q 376 800 440 831 q 274 718 311 769 q 219 607 238 667 q 203 483 201 547 q 290 252 206 351 q 522 153 374 153 q 761 260 676 153 q 840 504 846 367 q 819 622 838 567 q 765 726 801 678 q 667 802 729 774 z "},"R":{"ha":938,"x_min":69,"x_max":931,"o":"m 931 13 l 931 0 l 713 0 l 429 325 l 253 325 l 253 0 l 69 0 l 69 974 q 301 973 147 974 q 532 972 456 972 q 789 877 696 971 q 882 650 882 783 q 824 455 882 539 q 636 344 765 371 l 931 13 m 532 801 l 253 801 l 253 490 l 532 490 q 656 536 614 490 q 699 646 699 582 q 656 756 699 710 q 532 801 613 801 z "},"S":{"ha":918,"x_min":13,"x_max":844,"o":"m 814 813 l 668 738 q 578 814 642 782 q 438 846 514 846 q 288 810 339 846 q 236 717 236 774 q 268 651 236 676 q 343 614 300 625 q 453 594 386 603 q 572 575 521 586 q 678 541 624 564 q 766 487 732 518 q 822 403 800 456 q 844 285 844 351 q 786 109 844 181 q 638 6 728 38 q 436 -25 549 -25 q 13 214 110 -25 l 165 293 q 270 178 196 217 q 439 139 344 139 q 599 175 535 139 q 663 285 663 211 q 438 428 663 404 q 292 453 353 438 q 174 501 232 469 q 85 589 115 533 q 56 722 56 644 q 114 883 56 817 q 254 977 172 950 q 432 1006 336 1004 q 814 813 719 1006 z "},"T":{"ha":854,"x_min":11,"x_max":811,"o":"m 319 0 l 319 806 l 11 806 l 11 972 l 811 972 l 811 806 l 503 806 l 503 0 l 319 0 z "},"U":{"ha":1032,"x_min":68,"x_max":921,"o":"m 739 971 l 921 971 l 921 414 q 806 92 921 204 q 500 -21 690 -21 q 191 92 314 -21 q 68 414 68 204 l 68 971 l 250 971 l 250 414 q 318 215 250 285 q 501 146 386 146 q 676 217 614 146 q 739 414 739 288 l 739 971 z "},"V":{"ha":1044,"x_min":1,"x_max":1000,"o":"m 1000 972 l 596 -4 l 406 -4 l 1 972 l 207 972 l 500 215 l 794 972 l 1000 972 z "},"W":{"ha":1513,"x_min":7,"x_max":1468,"o":"m 1468 972 l 1118 0 l 963 0 l 842 306 l 739 613 l 638 303 l 519 0 l 364 0 l 7 972 l 213 972 l 442 271 l 678 972 l 797 972 l 1040 271 l 1263 972 l 1468 972 z "},"X":{"ha":979,"x_min":31,"x_max":939,"o":"m 485 610 l 728 972 l 929 972 l 929 964 l 600 492 l 939 6 l 939 0 l 733 0 l 485 365 l 236 0 l 31 0 l 31 6 l 368 492 l 40 964 l 40 972 l 242 972 l 485 610 z "},"Y":{"ha":969,"x_min":13,"x_max":957,"o":"m 231 972 l 478 571 l 736 972 l 957 972 l 957 964 l 569 401 l 569 0 l 386 0 l 386 401 l 13 964 l 13 972 l 231 972 z "},"Z":{"ha":814,"x_min":11,"x_max":771,"o":"m 24 800 l 24 972 l 771 972 l 771 886 l 267 174 l 771 174 l 771 0 l 11 0 l 11 106 l 504 800 l 24 800 z "},"[":{"ha":433,"x_min":68,"x_max":403,"o":"m 403 -149 l 68 -149 l 68 1085 l 403 1085 l 403 935 l 239 935 l 239 4 l 403 4 l 403 -149 z "},"\\":{"ha":635,"x_min":-7,"x_max":633,"o":"m -7 1064 l 171 1064 l 633 -114 l 457 -114 l -7 1064 z "},"]":{"ha":449,"x_min":11,"x_max":346,"o":"m 346 -149 l 11 -149 l 11 4 l 175 4 l 175 935 l 11 935 l 11 1085 l 346 1085 l 346 -149 z "},"^":{"ha":821,"x_min":1,"x_max":781,"o":"m 1 463 l 1 471 l 332 975 l 439 975 l 781 472 l 781 463 l 594 463 l 386 782 l 176 463 l 1 463 z "},"_":{"ha":668,"x_min":-15,"x_max":640,"o":"m -15 -153 l -15 -4 l 640 -4 l 640 -153 l -15 -153 z "},"`":{"ha":329,"x_min":-10,"x_max":293,"o":"m -10 964 l -10 971 l 190 971 l 293 782 l 293 774 l 143 774 l -10 964 z "},"a":{"ha":849,"x_min":18,"x_max":761,"o":"m 593 590 l 599 685 l 761 685 l 761 0 l 601 0 l 593 100 q 500 13 565 44 q 371 -21 435 -19 q 116 73 214 -22 q 18 343 18 168 q 119 608 18 514 q 375 701 219 703 q 504 671 444 701 q 593 590 564 640 m 390 550 q 245 494 303 550 q 188 343 188 439 q 245 191 188 247 q 390 135 303 135 q 519 178 467 135 q 583 282 571 221 q 583 403 594 343 q 519 507 571 464 q 390 550 467 550 z "},"b":{"ha":868,"x_min":56,"x_max":799,"o":"m 435 543 q 294 487 353 543 q 236 343 236 431 q 294 197 236 253 q 435 142 351 142 q 573 198 517 142 q 629 343 629 254 q 574 488 629 433 q 435 543 518 543 m 56 971 l 225 971 l 225 592 q 322 672 253 642 q 450 701 390 701 q 702 608 606 701 q 799 343 799 515 q 699 81 799 178 q 446 -15 600 -15 q 225 94 296 -15 l 214 0 l 56 0 l 56 971 z "},"c":{"ha":663,"x_min":15,"x_max":643,"o":"m 529 199 l 643 88 q 379 -21 533 -21 q 119 73 222 -21 q 15 342 15 167 q 119 610 15 517 q 379 704 222 704 q 626 603 524 704 l 519 490 q 382 544 458 544 q 240 488 296 544 q 185 342 185 431 q 240 194 185 247 q 379 142 296 142 q 529 199 472 142 z "},"d":{"ha":858,"x_min":24,"x_max":767,"o":"m 388 543 q 249 488 304 543 q 193 343 193 433 q 249 198 193 254 q 388 142 306 142 q 528 197 471 142 q 586 343 586 253 q 528 487 586 431 q 388 543 469 543 m 597 971 l 767 971 l 767 0 l 608 0 l 597 94 q 376 -15 526 -15 q 123 81 222 -15 q 24 343 24 178 q 120 608 24 515 q 372 701 217 701 q 501 672 432 701 q 597 592 569 642 l 597 971 z "},"e":{"ha":810,"x_min":25,"x_max":754,"o":"m 735 282 l 200 282 q 263 176 208 217 q 404 136 317 136 q 507 153 454 136 q 588 200 560 171 l 696 93 q 564 10 644 39 q 401 -18 483 -18 q 126 81 226 -18 q 25 347 25 181 q 124 606 25 506 q 389 706 224 706 q 660 597 565 706 q 735 282 754 488 m 203 422 l 572 422 q 517 522 564 488 q 394 556 469 556 q 272 522 324 556 q 203 422 221 488 z "},"f":{"ha":560,"x_min":-17,"x_max":550,"o":"m 281 0 l 111 0 l 111 526 l -17 526 l -17 675 l 111 675 l 111 721 q 186 920 111 851 q 372 989 261 989 q 550 933 464 989 l 488 807 q 383 843 432 843 q 309 812 338 843 q 281 721 281 781 l 281 675 l 482 675 l 482 526 l 281 526 l 281 0 z "},"g":{"ha":767,"x_min":21,"x_max":718,"o":"m 525 668 l 593 754 l 718 660 l 642 563 q 714 360 714 481 q 680 211 714 283 q 569 104 646 139 q 711 -122 711 33 q 615 -344 711 -261 q 368 -428 519 -428 q 119 -343 217 -428 q 21 -122 21 -258 l 189 -122 q 241 -228 189 -187 q 368 -269 293 -269 q 492 -231 443 -269 q 542 -122 542 -192 q 490 -20 542 -56 q 368 15 438 15 q 114 108 207 15 q 21 360 21 200 q 121 612 21 517 q 368 707 221 707 q 525 668 468 707 m 368 553 q 240 500 292 553 q 189 360 189 447 q 240 221 189 272 q 368 169 292 169 q 494 222 443 169 q 546 360 546 274 q 494 499 546 446 q 368 553 443 553 z "},"h":{"ha":807,"x_min":56,"x_max":719,"o":"m 56 972 l 225 972 l 225 592 q 439 694 304 694 q 650 606 581 694 q 719 361 719 518 l 719 0 l 550 0 l 550 360 q 508 494 550 450 q 394 538 465 538 q 273 483 321 538 q 225 350 225 429 l 225 0 l 56 0 l 56 972 z "},"i":{"ha":322,"x_min":40,"x_max":240,"o":"m 225 688 l 56 688 l 56 0 l 225 0 l 225 688 m 72 804 q 56 817 72 804 q 40 878 40 831 q 72 951 40 925 q 140 978 103 978 q 209 951 178 978 q 240 878 240 925 q 209 804 240 831 q 140 778 178 778 q 72 804 103 778 z "},"j":{"ha":311,"x_min":-157,"x_max":239,"o":"m 222 688 l 54 688 l 54 -146 q 40 -236 54 -207 q -14 -267 25 -265 q -96 -247 -51 -268 l -157 -379 q -6 -425 -87 -425 q 165 -351 107 -425 q 222 -146 222 -276 l 222 688 m 70 806 q 55 819 70 806 q 39 879 39 832 q 70 953 39 926 q 139 979 101 979 q 208 953 176 979 q 239 879 239 926 q 208 806 239 832 q 139 779 176 779 q 70 806 101 779 z "},"k":{"ha":715,"x_min":51,"x_max":693,"o":"m 51 971 l 221 971 l 221 410 l 451 685 l 654 685 l 654 675 l 375 363 l 693 13 l 693 0 l 489 0 l 221 310 l 221 0 l 51 0 l 51 971 z "},"l":{"ha":317,"x_min":56,"x_max":224,"o":"m 56 971 l 224 971 l 224 0 l 56 0 l 56 971 z "},"m":{"ha":1244,"x_min":56,"x_max":1128,"o":"m 681 0 l 511 0 l 511 367 q 474 489 511 439 q 371 539 438 539 q 265 488 304 539 q 225 367 225 438 l 225 0 l 56 0 l 56 686 l 213 686 l 225 603 q 300 674 250 651 q 406 697 350 697 q 608 569 556 697 q 838 694 688 694 q 1055 610 982 694 q 1128 369 1128 526 l 1128 0 l 958 0 l 958 369 q 926 490 958 443 q 829 536 894 536 q 722 487 763 536 q 681 367 681 438 l 681 0 z "},"n":{"ha":819,"x_min":51,"x_max":729,"o":"m 729 0 l 560 0 l 560 358 q 517 490 560 439 q 394 542 474 542 q 269 486 318 542 q 219 350 219 431 l 219 0 l 51 0 l 51 686 l 203 686 l 214 593 q 439 696 319 696 q 647 606 564 696 q 729 360 729 517 l 729 0 z "},"o":{"ha":797,"x_min":24,"x_max":736,"o":"m 121 596 q 169 647 121 596 q 378 699 218 699 q 637 596 538 699 q 736 342 736 493 q 639 87 736 189 q 379 -15 542 -15 q 120 87 217 -15 q 24 342 24 189 q 121 596 24 493 m 379 544 q 242 485 292 544 q 193 342 193 425 q 242 199 193 258 q 379 140 292 140 q 516 199 467 140 q 565 342 565 258 q 513 483 565 422 q 379 544 461 544 z "},"p":{"ha":868,"x_min":56,"x_max":799,"o":"m 295 203 q 323 175 295 203 q 435 147 350 147 q 574 203 519 147 q 629 342 629 260 q 576 481 629 425 q 435 536 524 536 q 293 481 346 536 q 240 342 240 425 q 295 203 240 260 m 225 -286 l 56 -286 l 56 685 l 214 685 l 225 590 q 324 672 263 644 q 447 700 385 700 q 701 598 603 700 q 799 342 799 496 q 706 85 799 186 q 453 -17 613 -17 q 323 6 388 -17 q 225 81 258 29 l 225 -286 z "},"q":{"ha":858,"x_min":22,"x_max":765,"o":"m 247 203 q 274 175 247 203 q 386 147 301 147 q 526 203 471 147 q 581 342 581 260 q 528 481 581 425 q 386 536 475 536 q 244 481 297 536 q 192 342 192 425 q 247 203 192 260 m 765 -286 l 596 -286 l 596 81 q 498 6 563 29 q 368 -17 433 -17 q 115 85 208 -17 q 22 342 22 186 q 120 598 22 496 q 374 700 218 700 q 497 672 436 700 q 596 590 558 644 l 607 685 l 765 685 l 765 -286 z "},"r":{"ha":603,"x_min":56,"x_max":594,"o":"m 56 685 l 213 685 l 225 606 q 308 683 261 664 q 418 703 356 703 q 594 638 529 703 l 518 490 q 396 535 465 535 q 274 492 322 535 q 225 361 225 450 l 225 0 l 56 0 l 56 685 z "},"s":{"ha":682,"x_min":18,"x_max":629,"o":"m 597 614 l 503 503 q 333 564 438 564 q 208 496 208 564 q 336 421 208 429 q 417 413 382 418 q 494 392 453 407 q 564 355 536 378 q 610 293 592 332 q 629 201 629 254 q 552 41 629 106 q 335 -24 475 -24 q 164 1 240 -24 q 18 99 88 26 l 101 219 q 207 153 136 181 q 338 124 278 125 q 424 146 388 122 q 461 206 461 169 q 430 257 461 240 q 325 278 399 274 q 225 294 271 282 q 135 328 179 306 q 67 393 92 351 q 42 490 42 435 q 69 590 42 547 q 140 657 96 633 q 232 692 183 681 q 331 704 281 704 q 597 614 494 704 z "},"t":{"ha":554,"x_min":-3,"x_max":511,"o":"m 125 860 l 294 878 l 294 683 l 483 683 l 483 538 l 293 538 l 293 242 q 317 169 293 194 q 382 144 342 144 q 464 165 422 144 l 511 21 q 371 -8 443 -7 q 191 52 257 -12 q 125 242 125 117 l 125 538 l -3 538 l -3 683 l 125 683 l 125 860 z "},"u":{"ha":832,"x_min":60,"x_max":738,"o":"m 60 685 l 229 685 l 229 326 q 272 194 229 246 q 394 143 315 143 q 520 199 471 143 q 569 335 569 254 l 569 685 l 738 685 l 738 -1 l 586 -1 l 575 92 q 343 -11 471 -11 q 138 79 217 -11 q 60 325 60 169 l 60 685 z "},"v":{"ha":792,"x_min":-3,"x_max":765,"o":"m 581 686 l 765 686 l 474 -3 l 290 -3 l -3 686 l 182 686 l 276 460 l 382 171 l 486 457 l 581 686 z "},"w":{"ha":1267,"x_min":42,"x_max":1179,"o":"m 536 686 l 685 686 l 835 171 l 992 686 l 1179 686 l 940 -3 l 743 -3 l 672 200 l 611 429 l 550 200 l 479 -3 l 282 -3 l 42 686 l 231 686 l 388 171 l 536 686 z "},"x":{"ha":739,"x_min":6,"x_max":708,"o":"m 357 453 l 492 685 l 694 685 l 694 679 l 469 347 l 708 4 l 708 0 l 506 0 l 357 229 l 208 0 l 6 0 l 6 4 l 244 347 l 19 679 l 19 685 l 222 685 l 357 453 z "},"y":{"ha":779,"x_min":-4,"x_max":746,"o":"m 558 685 l 746 685 l 328 -286 l 142 -286 l 269 11 l -4 685 l 193 685 l 297 389 l 363 196 l 433 385 l 558 685 z "},"z":{"ha":635,"x_min":13,"x_max":589,"o":"m 38 685 l 586 685 l 586 604 l 271 167 l 589 167 l 589 0 l 13 0 l 13 71 l 340 531 l 38 531 l 38 685 z "},"{":{"ha":469,"x_min":32,"x_max":431,"o":"m 431 -10 l 431 -142 q 204 -109 279 -169 q 129 88 129 -49 l 129 282 q 32 399 129 399 l 32 525 q 129 642 129 525 l 129 836 q 204 1033 129 972 q 431 1065 279 1093 l 431 933 q 335 926 364 951 q 307 828 307 901 l 307 642 q 296 526 307 553 q 210 461 275 481 q 266 436 244 451 q 296 395 288 421 q 306 351 304 369 q 307 296 307 333 q 307 282 307 288 l 307 96 q 331 2 307 22 q 431 -10 354 -18 z "},"|":{"ha":425,"x_min":103,"x_max":267,"o":"m 267 1044 l 267 -117 l 103 -117 l 103 1044 l 267 1044 z "},"}":{"ha":472,"x_min":-3,"x_max":396,"o":"m -3 -142 l -3 -10 q 97 2 74 -18 q 121 96 121 22 l 121 282 q 121 296 121 288 q 122 351 121 333 q 132 395 124 369 q 162 436 140 421 q 218 461 183 451 q 162 487 183 471 q 132 528 140 503 q 122 571 124 553 q 121 626 121 589 q 121 642 121 636 l 121 828 q 92 926 121 901 q -3 933 64 951 l -3 1065 q 224 1033 149 1093 q 299 836 299 972 l 299 642 q 396 525 299 525 l 396 399 q 299 282 299 399 l 299 88 q 224 -109 299 -49 q -3 -142 149 -169 z "},"~":{"ha":719,"x_min":-6,"x_max":683,"o":"m 560 518 l 683 476 q 580 322 650 374 q 413 304 510 269 q 315 357 388 313 q 206 401 243 401 q 108 322 142 401 l -6 365 q 79 499 21 457 q 211 542 138 542 q 351 493 271 542 q 454 438 432 444 q 560 518 519 418 z "},"¡":{"ha":443,"x_min":83,"x_max":306,"o":"m 104 -322 l 286 -322 l 286 394 l 104 394 l 104 -322 m 250 646 q 278 632 250 646 q 306 549 306 618 q 250 451 306 479 q 139 451 194 422 q 83 549 83 479 q 139 646 83 618 q 250 646 194 674 z "},"¢":{"ha":760,"x_min":50,"x_max":671,"o":"m 567 192 l 671 69 q 485 -29 588 -10 l 485 -126 l 328 -126 l 328 -26 q 127 99 204 1 q 50 325 50 196 q 126 549 50 451 q 328 676 201 647 l 328 778 l 485 778 l 485 678 q 669 581 592 657 l 571 471 q 498 515 543 499 q 414 532 453 532 q 276 472 333 532 q 218 325 218 413 q 276 179 218 239 q 414 119 333 119 q 494 140 450 119 q 567 192 538 161 z "},"£":{"ha":874,"x_min":61,"x_max":828,"o":"m 319 667 q 342 524 319 618 l 629 524 l 629 369 l 374 369 q 358 256 379 313 q 283 174 336 199 l 828 174 l 828 0 l 61 0 l 61 174 q 160 242 128 190 q 189 369 192 294 l 61 369 l 61 524 l 160 524 q 135 664 135 621 q 229 902 135 817 q 489 988 324 988 q 728 916 640 988 q 824 694 817 844 l 656 694 q 490 826 643 826 q 360 782 400 826 q 319 667 319 738 z "},"¤":{"ha":751,"x_min":18,"x_max":706,"o":"m 226 178 l 146 96 l 18 222 l 99 301 q 104 574 31 436 l 18 656 l 146 783 l 226 701 q 362 728 290 728 q 496 700 433 728 l 579 783 l 706 656 l 625 575 q 626 301 693 433 l 706 222 l 581 97 l 499 178 q 226 178 368 122 m 361 289 q 468 333 429 289 q 507 439 507 378 q 468 544 507 500 q 361 589 429 589 q 255 544 296 589 q 214 439 214 499 q 255 334 214 379 q 361 289 296 289 z "},"¥":{"ha":999,"x_min":13,"x_max":957,"o":"m 171 163 l 171 294 l 386 294 l 386 365 l 171 365 l 171 500 l 321 500 l 13 964 l 13 972 l 231 972 l 478 571 l 736 972 l 957 972 l 957 964 l 638 500 l 783 500 l 783 365 l 569 365 l 569 294 l 783 294 l 783 163 l 569 163 l 569 0 l 386 0 l 386 163 l 171 163 z "},"¦":{"ha":424,"x_min":111,"x_max":285,"o":"m 285 474 l 111 474 l 111 986 l 285 986 l 285 474 m 111 386 l 285 386 l 285 -126 l 111 -126 l 111 386 z "},"§":{"ha":836,"x_min":54,"x_max":771,"o":"m 54 108 l 164 224 q 406 136 247 133 q 530 153 478 136 q 583 203 582 171 q 563 236 585 222 q 501 257 540 250 q 411 264 461 264 q 285 274 346 263 q 171 310 224 286 q 88 377 118 333 q 61 478 58 421 q 96 558 64 518 q 185 617 128 599 q 97 674 125 629 q 71 765 68 718 q 111 874 74 828 q 206 942 149 919 q 321 974 264 964 q 438 983 378 983 q 744 879 654 983 l 624 776 q 431 833 564 833 q 251 769 256 833 q 278 728 250 744 q 342 706 306 713 q 418 700 378 700 q 542 692 486 700 q 655 663 599 683 q 741 597 711 642 q 765 486 771 551 q 728 403 761 443 q 646 350 694 364 q 735 288 704 333 q 764 201 767 243 q 723 94 761 140 q 626 26 685 49 q 510 -6 567 4 q 400 -15 454 -15 q 54 108 157 -15 m 589 482 q 556 538 590 515 q 469 565 521 560 q 366 565 418 571 q 276 538 314 560 q 238 483 239 515 q 271 432 236 453 q 357 407 306 411 q 460 408 408 403 q 550 433 513 413 q 589 482 588 453 z "},"¨":{"ha":710,"x_min":68,"x_max":608,"o":"m 68 910 q 117 996 68 971 q 214 996 165 1021 q 263 910 263 971 q 214 825 263 850 q 117 825 165 800 q 68 910 68 850 m 414 910 q 463 996 414 971 q 560 996 511 1021 q 608 910 608 971 q 560 825 608 850 q 463 825 511 800 q 414 910 414 850 z "},"©":{"ha":1285,"x_min":122,"x_max":1135,"o":"m 261 852 q 331 925 261 852 q 633 999 400 999 q 1001 853 867 999 q 1135 492 1135 707 q 1001 131 1135 276 q 633 -15 867 -15 q 261 131 400 -15 q 122 492 122 278 q 261 852 122 706 m 656 224 q 857 311 767 224 l 767 396 q 656 347 718 347 q 547 385 592 347 q 503 489 503 424 q 547 598 503 558 q 656 638 590 638 q 765 592 717 638 l 854 674 q 656 760 768 760 q 453 687 533 760 q 374 489 374 614 q 453 294 374 364 q 656 224 533 224 m 369 760 q 319 706 369 760 q 269 492 269 653 q 369 224 269 331 q 633 117 468 117 q 893 223 799 117 q 988 492 988 329 q 893 760 988 654 q 633 867 799 867 q 369 760 468 867 z "},"ª":{"ha":576,"x_min":4,"x_max":514,"o":"m 382 911 l 385 972 l 511 972 l 511 524 l 386 524 l 382 589 q 321 532 364 553 q 236 510 278 511 q 68 572 132 510 q 4 749 4 635 q 70 923 4 861 q 239 983 136 985 q 323 964 283 983 q 382 911 363 944 m 251 865 q 170 834 203 865 q 138 749 138 803 q 170 663 138 694 q 251 632 203 632 q 335 669 304 632 q 365 749 365 706 q 335 828 365 792 q 251 865 304 865 m 21 324 l 21 444 l 514 444 l 514 324 l 21 324 z "},"«":{"ha":685,"x_min":17,"x_max":635,"o":"m 17 442 l 210 749 l 390 749 l 199 442 l 390 133 l 210 133 l 17 442 m 261 442 l 454 749 l 635 749 l 443 442 l 635 133 l 454 133 l 261 442 z "},"¬":{"ha":650,"x_min":21,"x_max":569,"o":"m 569 531 l 569 210 l 424 210 l 424 386 l 21 386 l 21 531 l 569 531 z "},"®":{"ha":1285,"x_min":133,"x_max":1138,"o":"m 635 994 q 1003 849 868 994 q 1138 488 1138 703 q 1003 126 1138 272 q 635 -19 868 -19 q 268 126 403 -19 q 133 488 133 272 q 268 849 133 703 q 635 994 403 994 m 281 488 q 376 219 282 325 q 635 113 471 113 q 894 219 800 113 q 989 488 989 325 q 894 756 989 650 q 635 863 800 863 q 376 756 471 863 q 281 488 282 650 m 882 263 l 756 418 q 840 468 808 431 q 873 551 872 506 q 856 641 874 597 q 790 714 838 685 q 678 743 742 743 l 435 743 l 435 233 l 569 233 l 569 392 l 617 392 l 738 233 l 882 233 l 882 263 m 569 622 l 678 622 q 731 593 715 622 q 731 535 746 564 q 678 506 715 506 l 569 506 l 569 622 z "},"°":{"ha":422,"x_min":10,"x_max":383,"o":"m 65 697 q 37 720 65 697 q 10 826 10 743 q 66 956 10 910 q 197 1003 122 1003 q 328 956 272 1003 q 383 826 383 910 q 328 697 383 743 q 196 650 272 650 q 65 697 119 650 m 248 887 q 238 895 248 887 q 197 903 228 903 q 145 887 167 903 q 119 848 124 871 q 119 803 114 825 q 144 765 124 781 q 196 749 165 749 q 247 765 226 749 q 273 803 268 781 q 273 848 278 825 q 248 887 268 871 z "},"±":{"ha":651,"x_min":28,"x_max":596,"o":"m 28 444 l 28 603 l 226 603 l 226 808 l 396 808 l 396 603 l 596 603 l 596 444 l 396 444 l 396 239 l 226 239 l 226 444 l 28 444 m 28 26 l 28 181 l 596 181 l 596 26 l 28 26 z "},"²":{"ha":510,"x_min":43,"x_max":456,"o":"m 168 913 l 46 913 q 106 1030 47 989 q 243 1071 165 1071 q 398 1030 340 1071 q 456 906 456 989 q 426 813 456 847 q 356 767 397 778 q 272 749 314 756 q 200 727 229 742 q 171 683 171 713 l 171 665 l 446 665 l 446 550 l 43 550 l 43 683 q 73 774 43 740 q 145 819 103 807 q 230 838 188 831 q 302 861 272 846 q 332 906 332 876 q 246 964 332 964 q 192 951 214 964 q 168 913 169 938 z "},"³":{"ha":543,"x_min":28,"x_max":460,"o":"m 243 765 l 164 765 l 164 858 l 238 858 q 302 869 282 858 q 324 913 322 879 q 318 933 324 922 q 292 956 313 944 q 239 967 271 967 q 146 917 158 967 l 38 917 q 99 1032 38 993 q 240 1071 160 1071 q 383 1030 321 1071 q 447 913 446 989 q 430 850 447 879 q 381 811 413 821 q 438 769 417 800 q 460 706 460 739 q 424 608 460 647 q 340 553 388 568 q 238 539 292 539 q 92 579 154 539 q 28 699 29 619 l 156 699 q 242 650 171 650 q 304 663 278 650 q 331 703 331 676 q 243 765 331 765 z "},"´":{"ha":332,"x_min":-6,"x_max":297,"o":"m 297 971 l 297 964 l 144 774 l -6 774 l -6 782 l 97 971 l 297 971 z "},"µ":{"ha":815,"x_min":47,"x_max":731,"o":"m 731 0 l 565 0 l 549 71 q 477 -4 525 22 q 385 -31 429 -31 q 222 68 263 -31 l 222 -300 l 47 -300 l 47 661 l 226 661 l 226 299 q 276 173 226 219 q 390 126 325 126 q 502 175 456 126 q 549 315 549 224 l 549 661 l 731 661 l 731 0 z "},"¶":{"ha":1161,"x_min":15,"x_max":1099,"o":"m 529 800 l 529 -296 l 346 -296 l 346 242 q 103 363 190 257 q 15 606 15 469 q 116 863 15 754 q 394 972 217 972 l 1099 972 l 1099 800 l 969 800 l 969 -296 l 786 -296 l 786 800 l 529 800 z "},"·":{"ha":314,"x_min":24,"x_max":235,"o":"m 76 367 q 50 381 76 367 q 24 460 24 394 q 76 552 24 525 q 182 552 129 579 q 235 460 235 525 q 182 367 235 394 q 76 367 129 340 z "},"¸":{"ha":531,"x_min":46,"x_max":425,"o":"m 46 -235 l 119 -172 q 211 -217 150 -214 q 285 -178 272 -219 q 251 -119 296 -137 q 167 -129 206 -101 l 126 -97 l 171 33 l 293 33 l 271 -37 q 392 -88 358 -40 q 414 -197 425 -136 q 324 -308 397 -274 q 169 -322 251 -343 q 46 -235 88 -301 z "},"¹":{"ha":394,"x_min":74,"x_max":325,"o":"m 74 550 l 74 658 l 143 658 l 143 957 l 79 957 l 79 1061 l 265 1061 l 265 658 l 325 658 l 325 550 l 74 550 z "},"º":{"ha":519,"x_min":21,"x_max":475,"o":"m 140 842 l 140 765 q 193 667 140 696 q 299 667 246 639 q 353 765 353 696 l 353 842 q 300 938 353 910 q 194 939 247 967 q 140 842 140 911 m 21 768 l 21 843 q 46 955 21 906 q 111 1029 71 1004 q 199 1066 151 1054 q 296 1066 247 1078 q 385 1029 344 1054 q 450 955 425 1004 q 475 843 475 906 l 475 768 q 450 656 475 706 q 385 582 425 607 q 297 545 344 557 q 200 545 249 533 q 111 582 151 557 q 46 656 71 607 q 21 768 21 706 z "},"»":{"ha":639,"x_min":-4,"x_max":614,"o":"m 421 749 l 614 442 l 421 133 l 240 133 l 432 442 l 240 749 l 421 749 m 176 749 l 369 442 l 176 133 l -4 133 l 188 442 l -4 749 l 176 749 z "},"¼":{"ha":1063,"x_min":50,"x_max":996,"o":"m 789 510 l 949 510 l 949 197 l 996 197 l 996 90 l 949 90 l 949 0 l 826 0 l 826 90 l 560 90 l 554 194 l 789 510 m 826 197 l 826 392 l 681 197 l 826 197 m 693 982 l 828 982 l 269 -40 l 136 -40 l 693 982 m 50 465 l 50 571 l 119 571 l 119 872 l 56 872 l 56 976 l 242 976 l 242 571 l 310 571 l 310 465 l 50 465 z "},"½":{"ha":1125,"x_min":50,"x_max":1053,"o":"m 693 982 l 828 982 l 269 -40 l 136 -40 l 693 982 m 50 465 l 50 571 l 119 571 l 119 872 l 56 872 l 56 976 l 242 976 l 242 571 l 310 571 l 310 465 l 50 465 m 765 357 l 643 357 q 703 474 644 433 q 840 515 763 515 q 995 474 938 515 q 1053 350 1053 433 q 1024 257 1053 292 q 953 211 994 222 q 869 193 911 200 q 797 172 826 186 q 768 128 768 157 l 768 110 l 1043 110 l 1043 -6 l 640 -6 l 640 128 q 670 218 640 185 q 742 263 700 251 q 827 283 785 275 q 899 306 869 290 q 929 350 929 321 q 843 408 929 408 q 789 395 811 408 q 765 357 767 382 z "},"¾":{"ha":1174,"x_min":53,"x_max":1079,"o":"m 872 510 l 1032 510 l 1032 197 l 1079 197 l 1079 90 l 1032 90 l 1032 0 l 910 0 l 910 90 l 643 90 l 638 194 l 872 510 m 910 197 l 910 392 l 764 197 l 910 197 m 789 982 l 924 982 l 365 -40 l 232 -40 l 789 982 m 260 696 l 183 696 l 183 786 l 254 786 q 317 796 297 786 q 338 838 336 806 q 319 873 338 856 q 256 890 300 890 q 167 842 178 890 l 61 842 q 120 953 61 915 q 257 990 179 990 q 396 951 336 990 q 457 838 456 911 q 440 777 457 806 q 392 740 422 749 q 447 700 426 729 q 468 639 468 671 q 403 517 468 556 q 254 478 339 478 q 115 517 175 478 q 53 632 54 556 l 175 632 q 258 585 190 585 q 319 598 293 585 q 344 636 344 611 q 260 696 344 696 z "},"¿":{"ha":832,"x_min":21,"x_max":767,"o":"m 546 608 q 490 511 546 539 q 380 512 435 483 q 325 610 325 540 q 348 680 325 651 q 403 715 371 708 q 469 715 436 721 q 524 679 501 708 q 546 608 546 650 m 767 32 l 581 33 q 524 -67 579 -29 q 397 -104 468 -104 q 267 -74 319 -104 q 214 28 214 -44 q 230 79 214 57 q 263 111 246 101 q 318 137 281 121 q 372 161 356 153 q 428 194 408 181 q 474 239 449 208 q 513 317 500 269 q 525 433 525 365 l 525 440 l 342 442 l 343 435 q 289 306 342 339 q 215 267 271 293 q 124 219 160 240 q 56 147 88 197 q 24 31 24 97 q 127 -190 21 -117 q 396 -264 233 -264 q 659 -190 553 -265 q 767 32 765 -114 z "},"À":{"ha":1040,"x_min":-32,"x_max":1040,"o":"m 840 0 l 758 183 l 250 183 l 167 0 l -32 0 l 404 972 l 604 972 l 1040 0 l 840 0 m 685 354 l 504 768 l 324 354 l 685 354 m 269 1263 l 269 1269 l 469 1269 l 572 1081 l 572 1072 l 422 1072 l 269 1263 z "},"Á":{"ha":1040,"x_min":-32,"x_max":1040,"o":"m 758 183 l 840 0 l 1040 0 l 604 972 l 404 972 l -32 0 l 167 0 l 250 183 l 758 183 m 685 354 l 324 354 l 504 768 l 685 354 m 731 1269 l 731 1263 l 578 1072 l 428 1072 l 428 1081 l 531 1269 l 731 1269 z "},"Â":{"ha":1040,"x_min":-32,"x_max":1040,"o":"m 840 0 l 758 183 l 250 183 l 167 0 l -32 0 l 404 972 l 604 972 l 1040 0 l 840 0 m 685 354 l 504 768 l 324 354 l 685 354 m 257 1054 l 463 1246 l 556 1246 l 761 1054 l 761 1046 l 589 1046 l 508 1128 l 429 1046 l 257 1046 l 257 1054 z "},"Ã":{"ha":1040,"x_min":-32,"x_max":1040,"o":"m 840 0 l 758 183 l 250 183 l 167 0 l -32 0 l 404 972 l 604 972 l 1040 0 l 840 0 m 685 354 l 504 768 l 324 354 l 685 354 m 360 1060 l 253 1118 q 436 1240 313 1268 q 497 1214 453 1236 q 567 1195 540 1192 q 613 1239 593 1199 l 726 1185 q 649 1076 697 1106 q 547 1060 600 1046 q 507 1077 531 1064 q 466 1099 483 1090 q 430 1110 449 1107 q 393 1101 411 1114 q 360 1060 375 1089 z "},"Ä":{"ha":1040,"x_min":-32,"x_max":1040,"o":"m 758 183 l 840 0 l 1040 0 l 604 972 l 404 972 l -32 0 l 167 0 l 250 183 l 758 183 m 685 354 l 324 354 l 504 768 l 685 354 m 232 1144 q 281 1231 232 1206 q 378 1231 329 1256 q 426 1144 426 1206 q 378 1060 426 1085 q 281 1060 329 1035 q 232 1144 232 1085 m 578 1144 q 626 1231 578 1206 q 724 1231 675 1256 q 772 1144 772 1206 q 724 1060 772 1085 q 626 1060 675 1035 q 578 1144 578 1085 z "},"Å":{"ha":1040,"x_min":-32,"x_max":1040,"o":"m 319 1108 q 374 1232 319 1188 q 504 1276 429 1276 q 633 1232 578 1276 q 688 1108 688 1188 q 606 967 688 1013 l 1040 0 l 840 0 l 758 183 l 250 183 l 167 0 l -32 0 l 401 967 q 319 1108 319 1011 m 324 354 l 685 354 l 504 768 l 324 354 m 572 1145 q 562 1163 572 1145 q 501 1181 551 1181 q 431 1145 451 1181 q 431 1074 410 1110 q 501 1039 451 1039 q 573 1074 553 1039 q 572 1145 593 1110 z "},"Æ":{"ha":1267,"x_min":-29,"x_max":1192,"o":"m 1192 176 l 1192 0 l 610 0 l 610 196 l 304 196 l 181 0 l -29 0 l 588 972 l 1188 972 l 1188 800 l 782 800 l 782 569 l 1172 569 l 1172 400 l 782 400 l 782 176 l 1192 176 m 407 358 l 610 358 l 610 532 l 624 746 l 407 358 z "},"Ç":{"ha":917,"x_min":40,"x_max":925,"o":"m 336 -282 l 410 -219 q 501 -264 440 -261 q 575 -225 563 -267 q 541 -167 586 -185 q 457 -176 496 -149 l 417 -144 l 460 -15 q 147 152 253 13 q 40 479 42 292 q 72 667 40 576 q 165 831 103 757 q 328 948 226 904 q 556 992 429 992 q 913 843 761 992 l 790 725 q 556 817 697 817 q 306 716 392 817 q 221 479 219 615 q 306 247 222 343 q 556 150 389 150 q 687 176 621 150 q 800 249 753 201 l 925 122 q 581 -22 788 -14 l 561 -85 q 682 -135 649 -87 q 704 -244 715 -183 q 615 -356 688 -321 q 460 -369 542 -390 q 336 -282 378 -349 z "},"È":{"ha":860,"x_min":65,"x_max":793,"o":"m 793 181 l 793 0 l 65 0 l 65 972 l 793 972 l 793 794 l 247 794 l 247 571 l 774 571 l 774 400 l 247 400 l 247 181 l 793 181 m 233 1269 l 233 1276 l 433 1276 l 536 1088 l 536 1079 l 386 1079 l 233 1269 z "},"É":{"ha":860,"x_min":65,"x_max":793,"o":"m 793 0 l 793 181 l 247 181 l 247 400 l 774 400 l 774 571 l 247 571 l 247 794 l 793 794 l 793 972 l 65 972 l 65 0 l 793 0 m 658 1268 l 658 1261 l 506 1071 l 356 1071 l 356 1079 l 458 1268 l 658 1268 z "},"Ê":{"ha":860,"x_min":65,"x_max":793,"o":"m 793 181 l 793 0 l 65 0 l 65 972 l 793 972 l 793 794 l 247 794 l 247 571 l 774 571 l 774 400 l 247 400 l 247 181 l 793 181 m 211 1079 l 417 1271 l 510 1271 l 715 1079 l 715 1071 l 543 1071 l 463 1153 l 383 1071 l 211 1071 l 211 1079 z "},"Ë":{"ha":867,"x_min":65,"x_max":793,"o":"m 793 0 l 793 181 l 247 181 l 247 400 l 774 400 l 774 571 l 247 571 l 247 794 l 793 794 l 793 972 l 65 972 l 65 0 l 793 0 m 175 1167 q 224 1253 175 1228 q 321 1253 272 1278 q 369 1167 369 1228 q 321 1082 369 1107 q 224 1082 272 1057 q 175 1167 175 1107 m 521 1167 q 569 1253 521 1228 q 667 1253 618 1278 q 715 1167 715 1228 q 667 1082 715 1107 q 569 1082 618 1057 q 521 1167 521 1107 z "},"Ì":{"ha":356,"x_min":-62,"x_max":251,"o":"m 251 0 l 69 0 l 69 972 l 251 972 l 251 0 m -62 1251 l -62 1258 l 138 1258 l 240 1069 l 240 1061 l 90 1061 l -62 1251 z "},"Í":{"ha":356,"x_min":69,"x_max":382,"o":"m 69 0 l 251 0 l 251 972 l 69 972 l 69 0 m 382 1258 l 382 1251 l 229 1061 l 79 1061 l 79 1069 l 182 1258 l 382 1258 z "},"Î":{"ha":356,"x_min":-89,"x_max":415,"o":"m 251 0 l 69 0 l 69 972 l 251 972 l 251 0 m -89 1061 l 117 1253 l 210 1253 l 415 1061 l 415 1053 l 243 1053 l 163 1135 l 83 1053 l -89 1053 l -89 1061 z "},"Ï":{"ha":356,"x_min":-90,"x_max":401,"o":"m -90 1150 q -42 1236 -90 1211 q 56 1236 7 1261 q 104 1150 104 1211 q 56 1065 104 1090 q -42 1065 7 1040 q -90 1150 -90 1090 m 207 1150 q 256 1236 207 1211 q 353 1236 304 1261 q 401 1150 401 1211 q 353 1065 401 1090 q 256 1065 304 1040 q 207 1150 207 1090 m 69 0 l 251 0 l 251 972 l 69 972 l 69 0 z "},"Ð":{"ha":1015,"x_min":-17,"x_max":944,"o":"m -17 407 l -17 563 l 81 563 l 81 972 l 440 972 q 811 839 678 972 q 944 506 944 706 q 914 313 944 403 q 823 153 883 224 q 664 41 763 82 q 440 0 565 0 l 81 0 l 81 407 l -17 407 m 257 407 l 257 168 l 440 168 q 682 258 600 168 q 764 500 764 349 q 681 727 764 647 q 440 807 597 807 l 257 807 l 257 563 l 444 563 l 444 407 l 257 407 z "},"Ñ":{"ha":1028,"x_min":82,"x_max":890,"o":"m 707 369 l 707 974 l 890 974 l 890 0 l 776 0 l 776 -1 l 265 656 l 265 0 l 82 0 l 82 972 l 231 972 l 707 369 m 374 1069 l 268 1126 q 447 1246 328 1274 q 507 1220 464 1242 q 575 1202 550 1199 q 619 1244 600 1206 l 731 1192 q 655 1085 701 1115 q 556 1069 608 1056 q 516 1086 539 1074 q 477 1107 493 1099 q 442 1119 461 1115 q 406 1110 424 1122 q 374 1069 389 1099 z "},"Ò":{"ha":1090,"x_min":25,"x_max":1025,"o":"m 525 992 q 801 916 685 992 q 972 726 918 840 q 1024 481 1025 613 q 992 295 1022 383 q 902 135 961 207 q 746 21 843 64 q 525 -22 649 -22 q 303 19 401 -22 q 146 133 206 61 q 56 292 86 204 q 25 479 25 381 q 57 668 25 578 q 149 831 89 758 q 306 948 208 904 q 525 992 404 992 m 525 825 q 341 771 417 825 q 234 640 265 717 q 206 476 203 564 q 288 243 210 340 q 525 146 367 146 q 762 244 683 146 q 843 478 840 342 q 826 601 844 542 q 772 713 808 661 q 671 794 735 764 q 525 825 607 825 m 322 1274 l 322 1281 l 522 1281 l 625 1092 l 625 1083 l 475 1083 l 322 1274 z "},"Ó":{"ha":1090,"x_min":25,"x_max":1025,"o":"m 525 992 q 306 948 404 992 q 149 831 208 904 q 57 668 89 758 q 25 479 25 578 q 56 292 25 381 q 146 133 86 204 q 303 19 206 61 q 525 -22 401 -22 q 746 21 649 -22 q 902 135 843 64 q 992 295 961 207 q 1024 481 1022 383 q 972 726 1025 613 q 801 916 918 840 q 525 992 685 992 m 525 825 q 671 794 607 825 q 772 713 735 764 q 826 601 808 661 q 843 478 844 542 q 762 244 840 342 q 525 146 683 146 q 288 243 367 146 q 206 476 210 340 q 234 640 203 564 q 341 771 265 717 q 525 825 417 825 m 749 1274 l 749 1267 l 596 1076 l 446 1076 l 446 1085 l 549 1274 l 749 1274 z "},"Ô":{"ha":1090,"x_min":25,"x_max":1025,"o":"m 525 992 q 801 916 685 992 q 972 726 918 840 q 1024 481 1025 613 q 992 295 1022 383 q 902 135 961 207 q 746 21 843 64 q 525 -22 649 -22 q 303 19 401 -22 q 146 133 206 61 q 56 292 86 204 q 25 479 25 381 q 57 668 25 578 q 149 831 89 758 q 306 948 208 904 q 525 992 404 992 m 525 825 q 341 771 417 825 q 234 640 265 717 q 206 476 203 564 q 288 243 210 340 q 525 146 367 146 q 762 244 683 146 q 843 478 840 342 q 826 601 844 542 q 772 713 808 661 q 671 794 735 764 q 525 825 607 825 m 289 1086 l 494 1278 l 588 1278 l 793 1086 l 793 1078 l 621 1078 l 540 1160 l 461 1078 l 289 1078 l 289 1086 z "},"Õ":{"ha":1090,"x_min":25,"x_max":1025,"o":"m 525 992 q 801 916 685 992 q 972 726 918 840 q 1024 481 1025 613 q 992 295 1022 383 q 902 135 961 207 q 746 21 843 64 q 525 -22 649 -22 q 303 19 401 -22 q 146 133 206 61 q 56 292 86 204 q 25 479 25 381 q 57 668 25 578 q 149 831 89 758 q 306 948 208 904 q 525 992 404 992 m 525 825 q 341 771 417 825 q 234 640 265 717 q 206 476 203 564 q 288 243 210 340 q 525 146 367 146 q 762 244 683 146 q 843 478 840 342 q 826 601 844 542 q 772 713 808 661 q 671 794 735 764 q 525 825 607 825 m 411 1076 l 306 1133 q 485 1253 365 1281 q 544 1227 501 1249 q 613 1209 588 1206 q 657 1251 638 1213 l 768 1199 q 692 1092 739 1122 q 593 1076 646 1063 q 553 1093 576 1081 q 515 1114 531 1106 q 480 1126 499 1122 q 444 1117 461 1129 q 411 1076 426 1106 z "},"Ö":{"ha":1090,"x_min":25,"x_max":1025,"o":"m 267 1164 q 315 1250 267 1225 q 413 1250 364 1275 q 461 1164 461 1225 q 413 1079 461 1104 q 315 1079 364 1054 q 267 1164 267 1104 m 608 1164 q 657 1250 608 1225 q 754 1250 706 1275 q 803 1164 803 1225 q 754 1079 803 1104 q 657 1079 706 1054 q 608 1164 608 1104 m 525 992 q 306 948 404 992 q 149 831 208 904 q 57 668 89 758 q 25 479 25 578 q 56 292 25 381 q 146 133 86 204 q 303 19 206 61 q 525 -22 401 -22 q 746 21 649 -22 q 902 135 843 64 q 992 295 961 207 q 1024 481 1022 383 q 972 726 1025 613 q 801 916 918 840 q 525 992 685 992 m 525 825 q 671 794 607 825 q 772 713 735 764 q 826 601 808 661 q 843 478 844 542 q 762 244 840 342 q 525 146 683 146 q 288 243 367 146 q 206 476 210 340 q 234 640 203 564 q 341 771 265 717 q 525 825 417 825 z "},"×":{"ha":618,"x_min":58,"x_max":547,"o":"m 174 682 l 303 547 l 438 685 l 543 579 l 404 436 l 547 294 l 442 193 l 301 335 l 168 197 l 58 307 l 194 440 l 61 574 l 174 682 z "},"Ø":{"ha":1090,"x_min":25,"x_max":1025,"o":"m 525 992 q 714 960 622 992 l 776 1064 l 954 1064 l 846 883 q 979 704 933 811 q 1024 481 1025 597 q 992 295 1022 383 q 902 135 961 207 q 746 21 843 64 q 525 -22 649 -22 q 322 13 414 -22 l 254 -100 l 78 -100 l 192 89 q 67 261 110 158 q 25 479 25 364 q 57 668 25 578 q 149 831 89 758 q 306 948 208 904 q 525 992 404 992 m 525 146 q 762 244 683 146 q 843 478 840 342 q 754 732 846 632 l 411 161 q 525 146 464 146 m 525 825 q 341 771 417 825 q 234 640 265 717 q 206 476 203 564 q 285 246 208 336 l 625 811 q 525 825 574 825 z "},"Ù":{"ha":1032,"x_min":68,"x_max":921,"o":"m 739 971 l 921 971 l 921 414 q 806 92 921 204 q 500 -21 690 -21 q 191 92 314 -21 q 68 414 68 204 l 68 971 l 250 971 l 250 414 q 318 215 250 285 q 501 146 386 146 q 676 217 614 146 q 739 414 739 288 l 739 971 m 301 1274 l 301 1281 l 501 1281 l 604 1092 l 604 1083 l 454 1083 l 301 1274 z "},"Ú":{"ha":1032,"x_min":68,"x_max":921,"o":"m 921 971 l 739 971 l 739 414 q 676 217 739 288 q 501 146 614 146 q 318 215 386 146 q 250 414 250 285 l 250 971 l 68 971 l 68 414 q 191 92 68 204 q 500 -21 314 -21 q 806 92 690 -21 q 921 414 921 204 l 921 971 m 715 1279 l 715 1272 l 563 1082 l 413 1082 l 413 1090 l 515 1279 l 715 1279 z "},"Û":{"ha":1032,"x_min":68,"x_max":921,"o":"m 739 971 l 921 971 l 921 414 q 806 92 921 204 q 500 -21 690 -21 q 191 92 314 -21 q 68 414 68 204 l 68 971 l 250 971 l 250 414 q 318 215 250 285 q 501 146 386 146 q 676 217 614 146 q 739 414 739 288 l 739 971 m 247 1088 l 453 1279 l 546 1279 l 751 1088 l 751 1079 l 579 1079 l 499 1161 l 419 1079 l 247 1079 l 247 1088 z "},"Ü":{"ha":1032,"x_min":68,"x_max":921,"o":"m 921 971 l 739 971 l 739 414 q 676 217 739 288 q 501 146 614 146 q 318 215 386 146 q 250 414 250 285 l 250 971 l 68 971 l 68 414 q 191 92 68 204 q 500 -21 314 -21 q 806 92 690 -21 q 921 414 921 204 l 921 971 m 239 1160 q 288 1246 239 1221 q 385 1246 336 1271 q 433 1160 433 1221 q 385 1075 433 1100 q 288 1075 336 1050 q 239 1160 239 1100 m 585 1160 q 633 1246 585 1221 q 731 1246 682 1271 q 779 1160 779 1221 q 731 1075 779 1100 q 633 1075 682 1050 q 585 1160 585 1100 z "},"Ý":{"ha":999,"x_min":13,"x_max":957,"o":"m 478 571 l 231 972 l 13 972 l 13 964 l 386 401 l 386 0 l 569 0 l 569 401 l 957 964 l 957 972 l 736 972 l 478 571 m 694 1268 l 694 1261 l 542 1071 l 392 1071 l 392 1079 l 494 1268 l 694 1268 z "},"Þ":{"ha":939,"x_min":68,"x_max":883,"o":"m 68 0 l 69 971 l 250 971 l 250 813 l 526 813 q 682 785 613 813 q 794 711 751 757 q 860 606 838 665 q 883 487 883 547 q 860 367 883 426 q 794 263 838 308 q 682 189 751 217 q 526 161 613 161 l 251 161 l 251 0 l 68 0 m 251 644 l 251 325 l 526 325 q 657 375 610 325 q 703 485 704 425 q 656 594 703 544 q 526 644 610 644 l 251 644 z "},"ß":{"ha":875,"x_min":86,"x_max":815,"o":"m 349 3 l 347 157 q 561 165 488 121 q 635 292 635 208 q 568 417 635 371 q 415 463 501 463 l 350 463 l 350 624 l 411 624 q 518 645 471 624 q 567 715 565 667 q 525 802 569 774 q 419 831 481 831 q 310 800 353 831 q 267 715 268 769 l 267 389 q 267 193 267 333 q 268 0 268 53 l 86 0 l 86 714 q 186 915 86 842 q 417 988 286 988 q 650 917 554 988 q 746 715 746 846 q 706 608 746 656 q 599 544 667 560 q 763 447 710 519 q 815 297 815 375 q 680 33 815 111 q 349 3 544 -44 z "},"à":{"ha":849,"x_min":18,"x_max":761,"o":"m 593 590 l 599 685 l 761 685 l 761 0 l 601 0 l 593 100 q 500 13 565 44 q 371 -21 435 -19 q 116 73 214 -22 q 18 343 18 168 q 119 608 18 514 q 375 701 219 703 q 504 671 444 701 q 593 590 564 640 m 390 550 q 245 494 303 550 q 188 343 188 439 q 245 191 188 247 q 390 135 303 135 q 519 178 467 135 q 583 282 571 221 q 583 403 594 343 q 519 507 571 464 q 390 550 467 550 m 194 978 l 194 985 l 394 985 l 497 796 l 497 788 l 347 788 l 194 978 z "},"á":{"ha":849,"x_min":18,"x_max":761,"o":"m 593 590 q 504 671 564 640 q 375 701 444 701 q 119 608 219 703 q 18 343 18 514 q 116 73 18 168 q 371 -21 214 -22 q 500 13 435 -19 q 593 100 565 44 l 601 0 l 761 0 l 761 685 l 599 685 l 593 590 m 390 550 q 519 507 467 550 q 583 403 571 464 q 583 282 594 343 q 519 178 571 221 q 390 135 467 135 q 245 191 303 135 q 188 343 188 247 q 245 494 188 439 q 390 550 303 550 m 583 986 l 583 979 l 431 789 l 281 789 l 281 797 l 383 986 l 583 986 z "},"â":{"ha":849,"x_min":18,"x_max":761,"o":"m 593 590 l 599 685 l 761 685 l 761 0 l 601 0 l 593 100 q 500 13 565 44 q 371 -21 435 -19 q 116 73 214 -22 q 18 343 18 168 q 119 608 18 514 q 375 701 219 703 q 504 671 444 701 q 593 590 564 640 m 390 550 q 245 494 303 550 q 188 343 188 439 q 245 191 188 247 q 390 135 303 135 q 519 178 467 135 q 583 282 571 221 q 583 403 594 343 q 519 507 571 464 q 390 550 467 550 m 165 799 l 371 990 l 464 990 l 669 799 l 669 790 l 497 790 l 417 872 l 338 790 l 165 790 l 165 799 z "},"ã":{"ha":849,"x_min":18,"x_max":761,"o":"m 593 590 l 599 685 l 761 685 l 761 0 l 601 0 l 593 100 q 500 13 565 44 q 371 -21 435 -19 q 116 73 214 -22 q 18 343 18 168 q 119 608 18 514 q 375 701 219 703 q 504 671 444 701 q 593 590 564 640 m 390 550 q 245 494 303 550 q 188 343 188 439 q 245 191 188 247 q 390 135 303 135 q 519 178 467 135 q 583 282 571 221 q 583 403 594 343 q 519 507 571 464 q 390 550 467 550 m 292 813 l 186 869 q 365 989 246 1017 q 425 963 382 985 q 493 945 468 942 q 538 988 518 949 l 649 935 q 573 828 619 858 q 474 813 526 799 q 434 829 457 817 q 395 850 411 842 q 360 862 379 858 q 324 853 342 865 q 292 813 307 842 z "},"ä":{"ha":849,"x_min":18,"x_max":761,"o":"m 593 590 q 504 671 564 640 q 375 701 444 701 q 119 608 219 703 q 18 343 18 514 q 116 73 18 168 q 371 -21 214 -22 q 500 13 435 -19 q 593 100 565 44 l 601 0 l 761 0 l 761 685 l 599 685 l 593 590 m 390 550 q 519 507 467 550 q 583 403 571 464 q 583 282 594 343 q 519 178 571 221 q 390 135 467 135 q 245 191 303 135 q 188 343 188 247 q 245 494 188 439 q 390 550 303 550 m 153 910 q 201 996 153 971 q 299 996 250 1021 q 347 910 347 971 q 299 825 347 850 q 201 825 250 800 q 153 910 153 850 m 499 910 q 547 996 499 971 q 644 996 596 1021 q 693 910 693 971 q 644 825 693 850 q 547 825 596 800 q 499 910 499 850 z "},"å":{"ha":849,"x_min":18,"x_max":761,"o":"m 593 590 l 599 685 l 761 685 l 761 0 l 601 0 l 593 100 q 500 13 565 44 q 371 -21 435 -19 q 116 73 214 -22 q 18 343 18 168 q 119 608 18 514 q 375 701 219 703 q 504 671 444 701 q 593 590 564 640 m 390 550 q 245 494 303 550 q 188 343 188 439 q 245 191 188 247 q 390 135 303 135 q 519 178 467 135 q 583 282 571 221 q 583 403 594 343 q 519 507 571 464 q 390 550 467 550 m 277 819 q 250 841 277 819 q 224 938 224 863 q 277 1056 224 1013 q 401 1099 331 1099 q 525 1056 472 1099 q 578 938 578 1014 q 525 819 578 861 q 401 776 472 776 q 277 819 331 776 m 399 1007 q 331 973 350 1007 q 331 905 311 939 q 399 871 350 871 q 457 892 436 871 q 477 939 478 914 q 456 985 476 964 q 399 1007 435 1007 z "},"æ":{"ha":1357,"x_min":10,"x_max":1296,"o":"m 1276 282 l 742 282 q 804 176 750 217 q 946 136 858 136 q 1049 153 996 136 q 1129 200 1101 171 l 1238 93 q 1106 10 1186 39 q 943 -18 1025 -18 q 718 89 788 -18 l 711 0 l 586 0 l 585 100 q 492 13 557 44 q 363 -21 426 -19 q 108 73 206 -22 q 10 343 10 168 q 110 608 10 514 q 367 701 211 703 q 496 671 436 701 q 585 590 556 640 l 590 685 l 718 685 l 718 599 q 956 704 800 707 q 1092 672 1026 703 q 1207 589 1158 642 q 1276 456 1256 536 q 1276 282 1296 375 m 382 550 q 237 494 294 550 q 179 343 179 439 q 237 191 179 247 q 382 135 294 135 q 484 158 439 135 q 552 217 529 181 q 586 298 575 254 q 586 386 597 342 q 552 467 575 431 q 484 527 529 504 q 382 550 439 550 m 744 422 l 1114 422 q 1058 522 1106 488 q 936 556 1011 556 q 814 522 865 556 q 744 422 763 488 z "},"ç":{"ha":663,"x_min":15,"x_max":643,"o":"m 151 -265 l 225 -204 q 317 -247 256 -244 q 390 -210 378 -250 q 357 -153 401 -171 q 272 -162 313 -135 l 232 -132 l 275 -8 q 86 108 157 19 q 15 342 15 197 q 119 610 15 517 q 379 704 222 704 q 626 603 524 704 l 519 490 q 382 544 458 544 q 240 488 296 544 q 185 342 185 431 q 240 194 185 247 q 379 142 296 142 q 529 199 472 142 l 643 88 q 393 -21 538 -17 l 376 -74 q 497 -123 464 -76 q 519 -229 531 -169 q 459 -318 507 -285 q 354 -356 411 -351 q 240 -337 297 -361 q 151 -265 182 -314 z "},"è":{"ha":810,"x_min":25,"x_max":754,"o":"m 735 282 l 200 282 q 263 176 208 217 q 404 136 317 136 q 507 153 454 136 q 588 200 560 171 l 696 93 q 564 10 644 39 q 401 -18 483 -18 q 126 81 226 -18 q 25 347 25 181 q 124 606 25 506 q 389 706 224 706 q 660 597 565 706 q 735 282 754 488 m 203 422 l 572 422 q 517 522 564 488 q 394 556 469 556 q 272 522 324 556 q 203 422 221 488 m 185 983 l 185 990 l 385 990 l 488 801 l 488 793 l 338 793 l 185 983 z "},"é":{"ha":810,"x_min":25,"x_max":754,"o":"m 735 282 q 660 597 754 488 q 389 706 565 706 q 124 606 224 706 q 25 347 25 506 q 126 81 25 181 q 401 -18 226 -18 q 564 10 483 -18 q 696 93 644 39 l 588 200 q 507 153 560 171 q 404 136 454 136 q 263 176 317 136 q 200 282 208 217 l 735 282 m 203 422 q 272 522 221 488 q 394 556 324 556 q 517 522 469 556 q 572 422 564 488 l 203 422 m 589 993 l 589 986 l 436 796 l 286 796 l 286 804 l 389 993 l 589 993 z "},"ê":{"ha":810,"x_min":25,"x_max":754,"o":"m 735 282 l 200 282 q 263 176 208 217 q 404 136 317 136 q 507 153 454 136 q 588 200 560 171 l 696 93 q 564 10 644 39 q 401 -18 483 -18 q 126 81 226 -18 q 25 347 25 181 q 124 606 25 506 q 389 706 224 706 q 660 597 565 706 q 735 282 754 488 m 203 422 l 572 422 q 517 522 564 488 q 394 556 469 556 q 272 522 324 556 q 203 422 221 488 m 146 799 l 351 990 l 444 990 l 650 799 l 650 790 l 478 790 l 397 872 l 318 790 l 146 790 l 146 799 z "},"ë":{"ha":810,"x_min":25,"x_max":754,"o":"m 156 890 q 204 976 156 951 q 301 976 253 1001 q 350 890 350 951 q 301 806 350 831 q 204 806 253 781 q 156 890 156 831 m 451 890 q 500 976 451 951 q 597 976 549 1001 q 646 890 646 951 q 597 806 646 831 q 500 806 549 781 q 451 890 451 831 m 735 282 q 660 597 754 488 q 389 706 565 706 q 124 606 224 706 q 25 347 25 506 q 126 81 25 181 q 401 -18 226 -18 q 564 10 483 -18 q 696 93 644 39 l 588 200 q 507 153 560 171 q 404 136 454 136 q 263 176 317 136 q 200 282 208 217 l 735 282 m 203 422 q 272 522 221 488 q 394 556 324 556 q 517 522 469 556 q 572 422 564 488 l 203 422 z "},"ì":{"ha":331,"x_min":-6,"x_max":235,"o":"m -6 963 l -6 969 l 176 969 l 235 772 l 235 764 l 97 764 l -6 963 m 233 0 l 56 0 l 56 661 l 233 661 l 233 0 z "},"í":{"ha":331,"x_min":56,"x_max":300,"o":"m 300 969 l 300 963 l 197 764 l 60 764 l 60 772 l 118 969 l 300 969 m 56 0 l 233 0 l 233 661 l 56 661 l 56 0 z "},"î":{"ha":331,"x_min":-68,"x_max":374,"o":"m 233 0 l 56 0 l 56 661 l 233 661 l 233 0 m -68 775 l 113 978 l 193 978 l 374 775 l 374 767 l 222 767 l 153 853 l 83 767 l -68 767 l -68 775 z "},"ï":{"ha":331,"x_min":-69,"x_max":382,"o":"m -69 888 q -21 974 -69 949 q 76 974 28 999 q 125 888 125 949 q 76 803 125 828 q -21 803 28 778 q -69 888 -69 828 m 188 888 q 236 974 188 949 q 333 974 285 999 q 382 888 382 949 q 333 803 382 828 q 236 803 285 778 q 188 888 188 828 m 56 0 l 233 0 l 233 661 l 56 661 l 56 0 z "},"ð":{"ha":817,"x_min":44,"x_max":751,"o":"m 319 664 q 440 660 378 672 q 533 621 501 649 q 469 707 517 665 q 394 756 421 749 l 351 707 l 269 761 l 306 804 q 192 836 268 826 l 222 974 q 406 924 325 960 l 465 994 l 549 935 l 497 875 q 694 639 638 765 q 751 349 751 513 q 657 87 751 186 q 399 -12 563 -12 q 138 89 231 -12 q 44 331 44 190 q 116 546 44 451 q 319 664 188 640 m 266 196 q 290 167 266 196 q 399 139 314 139 q 531 196 483 139 q 578 332 578 253 q 531 467 578 410 q 399 524 483 524 q 266 467 314 524 q 218 332 218 410 q 266 196 218 253 z "},"ñ":{"ha":835,"x_min":51,"x_max":729,"o":"m 729 0 l 560 0 l 560 358 q 517 490 560 439 q 394 542 474 542 q 269 486 318 542 q 219 350 219 431 l 219 0 l 51 0 l 51 686 l 203 686 l 214 593 q 439 696 319 696 q 647 606 564 696 q 729 360 729 517 l 729 0 m 260 817 l 154 874 q 333 993 214 1021 q 393 967 350 989 q 461 949 436 946 q 506 992 486 953 l 617 939 q 541 833 588 863 q 442 817 494 803 q 402 833 425 821 q 363 854 379 846 q 328 866 347 863 q 292 858 310 869 q 260 817 275 846 z "},"ò":{"ha":797,"x_min":24,"x_max":736,"o":"m 121 596 q 169 647 121 596 q 378 699 218 699 q 637 596 538 699 q 736 342 736 493 q 639 87 736 189 q 379 -15 542 -15 q 120 87 217 -15 q 24 342 24 189 q 121 596 24 493 m 379 544 q 242 485 292 544 q 193 342 193 425 q 242 199 193 258 q 379 140 292 140 q 516 199 467 140 q 565 342 565 258 q 513 483 565 422 q 379 544 461 544 m 179 974 l 179 981 l 379 981 l 482 792 l 482 783 l 332 783 l 179 974 z "},"ó":{"ha":797,"x_min":24,"x_max":736,"o":"m 637 596 q 587 647 637 596 q 378 699 538 699 q 121 596 218 699 q 24 342 24 493 q 120 87 24 189 q 379 -15 217 -15 q 639 87 542 -15 q 736 342 736 189 q 637 596 736 493 m 379 544 q 513 483 461 544 q 565 342 565 422 q 516 199 565 258 q 379 140 467 140 q 242 199 292 140 q 193 342 193 258 q 242 485 193 425 q 379 544 292 544 m 597 978 l 597 971 l 444 781 l 294 781 l 294 789 l 397 978 l 597 978 z "},"ô":{"ha":797,"x_min":24,"x_max":736,"o":"m 121 596 q 169 647 121 596 q 378 699 218 699 q 637 596 538 699 q 736 342 736 493 q 639 87 736 189 q 379 -15 542 -15 q 120 87 217 -15 q 24 342 24 189 q 121 596 24 493 m 379 544 q 242 485 292 544 q 193 342 193 425 q 242 199 193 258 q 379 140 292 140 q 516 199 467 140 q 565 342 565 258 q 513 483 565 422 q 379 544 461 544 m 126 785 l 332 976 l 425 976 l 631 785 l 631 776 l 458 776 l 378 858 l 299 776 l 126 776 l 126 785 z "},"õ":{"ha":797,"x_min":24,"x_max":736,"o":"m 121 596 q 169 647 121 596 q 378 699 218 699 q 637 596 538 699 q 736 342 736 493 q 639 87 736 189 q 379 -15 542 -15 q 120 87 217 -15 q 24 342 24 189 q 121 596 24 493 m 379 544 q 242 485 292 544 q 193 342 193 425 q 242 199 193 258 q 379 140 292 140 q 516 199 467 140 q 565 342 565 258 q 513 483 565 422 q 379 544 461 544 m 257 807 l 151 864 q 331 983 211 1011 q 390 958 347 979 q 458 940 433 936 q 503 982 483 943 l 614 929 q 538 823 585 853 q 439 807 492 793 q 399 824 422 811 q 360 844 376 836 q 326 856 344 853 q 290 848 307 860 q 257 807 272 836 z "},"ö":{"ha":797,"x_min":24,"x_max":736,"o":"m 139 900 q 188 986 139 961 q 285 986 236 1011 q 333 900 333 961 q 285 815 333 840 q 188 815 236 790 q 139 900 139 840 m 425 900 q 474 986 425 961 q 571 986 522 1011 q 619 900 619 961 q 571 815 619 840 q 474 815 522 790 q 425 900 425 840 m 637 596 q 587 647 637 596 q 378 699 538 699 q 121 596 218 699 q 24 342 24 493 q 120 87 24 189 q 379 -15 217 -15 q 639 87 542 -15 q 736 342 736 189 q 637 596 736 493 m 379 544 q 513 483 461 544 q 565 342 565 422 q 516 199 565 258 q 379 140 467 140 q 242 199 292 140 q 193 342 193 258 q 242 485 193 425 q 379 544 292 544 z "},"÷":{"ha":719,"x_min":26,"x_max":647,"o":"m 26 533 l 26 369 l 647 369 l 647 533 l 26 533 m 240 190 q 289 276 240 251 q 386 276 338 301 q 435 190 435 251 q 386 106 435 131 q 289 106 338 81 q 240 190 240 131 m 240 707 q 289 793 240 768 q 386 793 338 818 q 435 707 435 768 q 386 622 435 647 q 289 622 338 597 q 240 707 240 647 z "},"ø":{"ha":797,"x_min":24,"x_max":736,"o":"m 378 699 q 500 679 442 699 l 551 767 l 711 767 l 619 611 q 736 342 736 510 q 639 87 736 189 q 379 -15 542 -15 q 260 1 322 -15 l 206 -90 l 46 -90 l 139 68 q 24 342 24 168 q 121 596 24 493 q 378 699 218 699 m 379 544 q 242 485 292 544 q 193 342 193 425 q 228 218 193 269 l 418 540 q 379 544 400 544 m 379 140 q 516 199 467 140 q 565 342 565 258 q 531 460 565 406 l 343 143 q 379 140 354 140 z "},"ù":{"ha":836,"x_min":60,"x_max":738,"o":"m 60 685 l 229 685 l 229 326 q 272 194 229 246 q 394 143 315 143 q 520 199 471 143 q 569 335 569 254 l 569 685 l 738 685 l 738 -1 l 586 -1 l 575 92 q 343 -11 471 -11 q 138 79 217 -11 q 60 325 60 169 l 60 685 m 194 965 l 194 972 l 394 972 l 497 783 l 497 775 l 347 775 l 194 965 z "},"ú":{"ha":836,"x_min":60,"x_max":738,"o":"m 229 685 l 60 685 l 60 325 q 138 79 60 169 q 343 -11 217 -11 q 575 92 471 -11 l 586 -1 l 738 -1 l 738 685 l 569 685 l 569 335 q 520 199 569 254 q 394 143 471 143 q 272 194 315 143 q 229 326 229 246 l 229 685 m 617 972 l 617 965 l 464 775 l 314 775 l 314 783 l 417 972 l 617 972 z "},"û":{"ha":836,"x_min":60,"x_max":738,"o":"m 60 685 l 229 685 l 229 326 q 272 194 229 246 q 394 143 315 143 q 520 199 471 143 q 569 335 569 254 l 569 685 l 738 685 l 738 -1 l 586 -1 l 575 92 q 343 -11 471 -11 q 138 79 217 -11 q 60 325 60 169 l 60 685 m 160 786 l 365 978 l 458 978 l 664 786 l 664 778 l 492 778 l 411 860 l 332 778 l 160 778 l 160 786 z "},"ü":{"ha":836,"x_min":60,"x_max":738,"o":"m 229 685 l 60 685 l 60 325 q 138 79 60 169 q 343 -11 217 -11 q 575 92 471 -11 l 586 -1 l 738 -1 l 738 685 l 569 685 l 569 335 q 520 199 569 254 q 394 143 471 143 q 272 194 315 143 q 229 326 229 246 l 229 685 m 135 896 q 183 982 135 957 q 281 982 232 1007 q 329 896 329 957 q 281 811 329 836 q 183 811 232 786 q 135 896 135 836 m 481 896 q 529 982 481 957 q 626 982 578 1007 q 675 896 675 957 q 626 811 675 836 q 529 811 578 786 q 481 896 481 836 z "},"ý":{"ha":779,"x_min":-4,"x_max":746,"o":"m 746 685 l 558 685 l 433 385 l 363 196 l 297 389 l 193 685 l -4 685 l 269 11 l 142 -286 l 328 -286 l 746 685 m 564 974 l 564 967 l 411 776 l 261 776 l 261 785 l 364 974 l 564 974 z "},"þ":{"ha":867,"x_min":56,"x_max":799,"o":"m 435 147 q 574 199 518 147 q 629 342 629 251 q 574 484 629 432 q 435 536 518 536 q 297 479 354 536 q 240 342 240 422 q 297 204 240 261 q 435 147 354 147 m 225 -286 l 56 -286 l 56 972 l 225 972 l 225 592 q 322 672 257 643 q 449 700 386 700 q 701 607 604 700 q 799 342 799 514 q 703 76 799 169 q 451 -17 607 -17 q 326 10 389 -17 q 225 93 263 36 l 225 -286 z "},"ÿ":{"ha":779,"x_min":-4,"x_max":746,"o":"m 746 685 l 558 685 l 433 385 l 363 196 l 297 389 l 193 685 l -4 685 l 269 11 l 142 -286 l 328 -286 l 746 685 m 117 885 q 165 971 117 946 q 263 971 214 996 q 311 885 311 946 q 263 800 311 825 q 165 800 214 775 q 117 885 117 825 m 463 885 q 511 971 463 946 q 608 971 560 996 q 657 885 657 946 q 608 800 657 825 q 511 800 560 775 q 463 885 463 825 z "},"ı":{"ha":331,"x_min":56,"x_max":233,"o":"m 233 0 l 56 0 l 56 661 l 233 661 l 233 0 z "},"Ł":{"ha":824,"x_min":-19,"x_max":772,"o":"m 272 574 l 419 646 l 419 506 l 272 435 l 272 169 l 772 169 l 772 0 l 89 0 l 89 346 l -19 293 l -19 431 l 89 483 l 89 972 l 272 972 l 272 574 z "},"ł":{"ha":317,"x_min":-33,"x_max":322,"o":"m 322 613 l 322 488 l 224 439 l 224 0 l 56 0 l 56 357 l -33 314 l -33 440 l 56 483 l 56 971 l 224 971 l 224 564 l 322 613 z "},"Œ":{"ha":1436,"x_min":63,"x_max":1353,"o":"m 1353 183 l 1353 1 l 718 1 q 558 -21 640 -21 q 190 122 317 -21 q 63 492 63 265 q 190 853 63 715 q 558 992 318 992 q 718 969 640 992 l 718 972 l 1353 972 l 1353 790 l 888 790 l 888 574 l 1333 574 l 1333 400 l 888 400 l 888 183 l 1353 183 m 560 838 q 326 740 407 838 q 246 488 246 642 q 329 239 246 343 q 564 135 413 135 q 718 163 657 135 l 718 807 q 560 838 653 838 z "},"œ":{"ha":1318,"x_min":26,"x_max":1275,"o":"m 1256 282 l 725 282 q 785 176 733 217 q 925 136 838 136 q 1028 153 975 136 q 1108 200 1081 171 l 1217 93 q 1085 10 1165 39 q 922 -18 1004 -18 q 640 122 724 -18 q 382 -15 546 -15 q 123 87 219 -15 q 26 342 26 189 q 124 597 26 493 q 381 700 221 700 q 538 664 465 700 q 649 563 610 628 q 751 664 681 625 q 910 703 821 703 q 1181 595 1088 703 q 1256 282 1275 488 m 382 544 q 245 485 294 544 q 196 342 196 425 q 245 199 196 258 q 382 140 294 140 q 519 199 469 140 q 568 342 568 258 q 516 483 568 422 q 382 544 464 544 m 724 422 l 1093 422 q 1038 522 1085 488 q 915 556 990 556 q 793 522 844 556 q 724 422 742 488 z "},"Š":{"ha":918,"x_min":13,"x_max":844,"o":"m 814 813 l 668 738 q 578 814 642 782 q 438 846 514 846 q 288 810 339 846 q 236 717 236 774 q 268 651 236 676 q 343 614 300 625 q 453 594 386 603 q 572 575 521 586 q 678 541 624 564 q 766 487 732 518 q 822 403 800 456 q 844 285 844 351 q 786 109 844 181 q 638 6 728 38 q 436 -25 549 -25 q 13 214 110 -25 l 165 293 q 270 178 196 217 q 439 139 344 139 q 599 175 535 139 q 663 285 663 211 q 438 428 663 404 q 292 453 353 438 q 174 501 232 469 q 85 589 115 533 q 56 722 56 644 q 114 883 56 817 q 254 977 172 950 q 432 1006 336 1004 q 814 813 719 1006 m 400 1075 l 194 1267 l 194 1275 l 367 1275 l 449 1190 l 538 1275 l 704 1275 l 704 1267 l 493 1075 l 400 1075 z "},"š":{"ha":682,"x_min":18,"x_max":629,"o":"m 597 614 l 503 503 q 333 564 438 564 q 208 496 208 564 q 336 421 208 429 q 417 413 382 418 q 494 392 453 407 q 564 355 536 378 q 610 293 592 332 q 629 201 629 254 q 552 41 629 106 q 335 -24 475 -24 q 164 1 240 -24 q 18 99 88 26 l 101 219 q 207 153 136 181 q 338 124 278 125 q 424 146 388 122 q 461 206 461 169 q 430 257 461 240 q 325 278 399 274 q 225 294 271 282 q 135 328 179 306 q 67 393 92 351 q 42 490 42 435 q 69 590 42 547 q 140 657 96 633 q 232 692 183 681 q 331 704 281 704 q 597 614 494 704 m 286 772 l 81 964 l 81 972 l 253 972 l 335 888 l 424 972 l 590 972 l 590 964 l 379 772 l 286 772 z "},"Ÿ":{"ha":969,"x_min":13,"x_max":957,"o":"m 478 571 l 231 972 l 13 972 l 13 964 l 386 401 l 386 0 l 569 0 l 569 401 l 957 964 l 957 972 l 736 972 l 478 571 m 208 1160 q 257 1246 208 1221 q 354 1246 306 1271 q 403 1160 403 1221 q 354 1075 403 1100 q 257 1075 306 1050 q 208 1160 208 1100 m 554 1160 q 603 1246 554 1221 q 700 1246 651 1271 q 749 1160 749 1221 q 700 1075 749 1100 q 603 1075 651 1050 q 554 1160 554 1100 z "},"Ž":{"ha":788,"x_min":-10,"x_max":750,"o":"m 3 800 l 3 972 l 750 972 l 750 886 l 246 174 l 750 174 l 750 0 l -10 0 l -10 106 l 483 800 l 3 800 m 351 1061 l 146 1253 l 146 1261 l 318 1261 l 400 1176 l 489 1261 l 656 1261 l 656 1253 l 444 1061 l 351 1061 z "},"ž":{"ha":653,"x_min":13,"x_max":589,"o":"m 38 685 l 586 685 l 586 604 l 271 167 l 589 167 l 589 0 l 13 0 l 13 71 l 340 531 l 38 531 l 38 685 m 272 769 l 67 961 l 67 969 l 239 969 l 321 885 l 410 969 l 576 969 l 576 961 l 365 769 l 272 769 z "},"ƒ":{"ha":613,"x_min":-87,"x_max":600,"o":"m 161 -3 l 161 526 l 33 526 l 33 675 l 161 675 l 161 721 q 236 920 161 851 q 422 989 311 989 q 600 933 514 989 l 538 807 q 433 843 482 843 q 359 812 388 843 q 331 721 331 781 l 331 675 l 532 675 l 532 526 l 331 526 l 331 -3 q 256 -202 331 -133 q 69 -271 181 -271 q -87 -221 -11 -271 l -25 -94 q 58 -125 22 -125 q 133 -94 104 -125 q 161 -3 161 -62 z "},"ˆ":{"ha":590,"x_min":31,"x_max":535,"o":"m 31 801 l 236 993 l 329 993 l 535 801 l 535 793 l 363 793 l 282 875 l 203 793 l 31 793 l 31 801 z "},"ˇ":{"ha":563,"x_min":22,"x_max":532,"o":"m 228 772 l 22 964 l 22 972 l 194 972 l 276 888 l 365 972 l 532 972 l 532 964 l 321 772 l 228 772 z "},"˘":{"ha":513,"x_min":25,"x_max":468,"o":"m 321 971 l 457 971 q 358 788 468 842 q 136 789 247 735 q 36 971 25 843 l 174 971 q 210 902 174 922 q 284 902 247 882 q 321 971 321 922 z "},"˙":{"ha":275,"x_min":15,"x_max":215,"o":"m 47 815 q 31 828 47 815 q 15 889 15 842 q 47 963 15 936 q 115 989 78 989 q 184 963 153 989 q 215 889 215 936 q 184 815 215 842 q 115 789 153 789 q 47 815 78 789 z "},"˚":{"ha":436,"x_min":21,"x_max":389,"o":"m 76 701 q 48 723 76 701 q 21 824 21 744 q 76 947 21 903 q 206 992 131 992 q 334 947 279 992 q 389 824 389 903 q 334 701 389 744 q 206 657 279 657 q 76 701 131 657 m 274 860 q 263 878 274 860 q 203 896 253 896 q 132 860 153 896 q 132 790 111 825 q 203 754 153 754 q 274 790 254 754 q 274 860 294 825 z "},"˛":{"ha":524,"x_min":60,"x_max":426,"o":"m 340 -200 l 426 -265 q 342 -334 397 -312 q 231 -350 286 -356 q 128 -313 176 -344 q 67 -232 81 -282 q 62 -183 60 -210 q 77 -124 64 -156 q 120 -69 90 -92 q 201 -36 150 -47 q 328 -37 251 -25 l 349 -110 q 239 -120 300 -97 q 193 -194 178 -143 q 247 -231 203 -225 q 340 -200 292 -237 z "},"˜":{"ha":551,"x_min":39,"x_max":501,"o":"m 144 893 l 39 950 q 218 1069 99 1097 q 278 1044 235 1065 q 346 1026 321 1022 q 390 1068 371 1029 l 501 1015 q 426 909 472 939 q 326 893 379 879 q 287 910 310 897 q 248 931 264 922 q 213 942 232 939 q 177 934 194 946 q 144 893 160 922 z "},"˝":{"ha":604,"x_min":17,"x_max":569,"o":"m 569 974 l 569 968 l 406 778 l 267 778 l 390 974 l 569 974 m 318 975 l 318 969 l 158 779 l 17 779 l 139 975 l 318 975 z "},"–":{"ha":757,"x_min":29,"x_max":686,"o":"m 29 335 l 29 485 l 686 485 l 686 335 l 29 335 z "},"—":{"ha":865,"x_min":19,"x_max":810,"o":"m 19 335 l 19 485 l 810 485 l 810 335 l 19 335 z "},"‘":{"ha":296,"x_min":19,"x_max":261,"o":"m 261 974 l 194 661 l 19 661 l 128 974 l 261 974 z "},"’":{"ha":281,"x_min":-3,"x_max":239,"o":"m -3 660 l 64 972 l 239 972 l 131 660 l -3 660 z "},"‚":{"ha":347,"x_min":35,"x_max":232,"o":"m 232 72 q 169 -136 232 56 l 74 -136 l 100 1 q 35 76 35 13 q 84 160 35 136 q 183 158 133 183 q 232 72 232 132 z "},"“":{"ha":525,"x_min":8,"x_max":485,"o":"m 485 971 l 418 658 l 243 658 l 351 971 l 485 971 m 250 971 l 183 658 l 8 658 l 117 971 l 250 971 z "},"”":{"ha":503,"x_min":-3,"x_max":474,"o":"m -3 660 l 64 972 l 239 972 l 131 660 l -3 660 m 232 660 l 299 972 l 474 972 l 365 660 l 232 660 z "},"„":{"ha":560,"x_min":35,"x_max":494,"o":"m 232 72 q 169 -136 232 56 l 74 -136 l 100 1 q 35 76 35 13 q 84 160 35 136 q 183 158 133 183 q 232 72 232 132 m 494 72 q 432 -136 494 56 l 336 -136 l 363 1 q 297 76 297 13 q 347 160 297 136 q 445 158 396 183 q 494 72 494 132 z "},"†":{"ha":824,"x_min":31,"x_max":758,"o":"m 488 971 l 488 711 l 758 711 l 758 558 l 488 558 l 488 -161 l 301 -161 l 301 558 l 31 558 l 31 711 l 301 711 l 301 971 l 488 971 z "},"‡":{"ha":906,"x_min":63,"x_max":790,"o":"m 518 971 l 518 714 l 790 714 l 790 561 l 518 561 l 518 254 l 790 254 l 790 103 l 518 103 l 518 -174 l 335 -174 l 335 103 l 63 103 l 63 254 l 335 254 l 335 561 l 63 561 l 63 714 l 335 714 l 335 971 l 518 971 z "},"•":{"ha":494,"x_min":49,"x_max":407,"o":"m 229 275 q 100 324 151 275 q 49 450 49 372 q 100 577 49 528 q 229 626 151 626 q 356 577 306 626 q 407 450 407 528 q 356 324 407 372 q 229 275 306 275 z "},"…":{"ha":1008,"x_min":51,"x_max":885,"o":"m 83 14 q 67 27 83 14 q 51 88 51 40 q 83 161 51 135 q 151 188 114 188 q 220 161 189 188 q 251 88 251 135 q 220 14 251 40 q 151 -12 189 -12 q 83 14 114 -12 m 399 14 q 384 27 399 14 q 368 88 368 40 q 399 161 368 135 q 468 188 431 188 q 537 161 506 188 q 568 88 568 135 q 537 14 568 40 q 468 -12 506 -12 q 399 14 431 -12 m 716 14 q 700 27 716 14 q 685 88 685 40 q 716 161 685 135 q 785 188 747 188 q 853 161 822 188 q 885 88 885 135 q 853 14 885 40 q 785 -12 822 -12 q 716 14 747 -12 z "},"‰":{"ha":1610,"x_min":40,"x_max":1543,"o":"m 265 990 q 376 966 328 990 q 450 903 425 942 q 487 819 475 865 q 487 726 499 772 q 450 641 475 679 q 376 578 425 603 q 265 554 328 554 q 140 587 193 554 q 64 667 88 619 q 40 772 40 715 q 64 877 40 829 q 140 958 88 925 q 265 990 193 990 m 747 974 l 943 974 l 304 -1 l 107 -1 l 747 974 m 682 402 q 706 414 682 402 q 793 426 731 426 q 904 402 856 426 q 978 340 953 378 q 1015 255 1003 301 q 1015 162 1026 208 q 978 77 1003 115 q 904 15 953 39 q 793 -10 856 -10 q 682 15 731 -10 q 608 77 633 39 q 572 162 583 115 q 572 255 560 208 q 608 340 583 301 q 682 402 633 378 m 859 270 q 847 284 859 270 q 793 299 835 299 q 727 270 751 299 q 703 208 703 242 q 727 145 703 174 q 793 117 751 117 q 859 145 835 117 q 883 208 883 174 q 859 270 883 242 m 331 835 q 319 850 331 835 q 265 864 307 864 q 199 835 224 864 q 175 773 175 807 q 199 710 175 739 q 265 682 224 682 q 331 710 307 682 q 356 773 356 739 q 331 835 356 807 m 1199 402 q 1223 414 1199 402 q 1310 426 1247 426 q 1421 402 1372 426 q 1494 340 1469 378 q 1531 255 1519 301 q 1531 162 1543 208 q 1494 77 1519 115 q 1421 15 1469 39 q 1310 -10 1372 -10 q 1199 15 1247 -10 q 1125 77 1150 39 q 1088 162 1100 115 q 1088 255 1076 208 q 1125 340 1100 301 q 1199 402 1150 378 m 1376 270 q 1364 284 1376 270 q 1310 299 1351 299 q 1244 270 1268 299 q 1219 208 1219 242 q 1244 145 1219 174 q 1310 117 1268 117 q 1376 145 1351 117 q 1400 208 1400 174 q 1376 270 1400 242 z "},"‹":{"ha":450,"x_min":17,"x_max":390,"o":"m 17 442 l 210 749 l 390 749 l 199 442 l 390 133 l 210 133 l 17 442 z "},"›":{"ha":486,"x_min":31,"x_max":404,"o":"m 211 749 l 404 442 l 211 133 l 31 133 l 222 442 l 31 749 l 211 749 z "},"⁄":{"ha":228,"x_min":-232,"x_max":415,"o":"m -232 -92 l 258 1013 l 415 1013 l -75 -92 l -232 -92 z "},"€":{"ha":785,"x_min":17,"x_max":761,"o":"m 710 171 l 761 1 q 593 -22 682 -22 q 270 68 389 -22 q 111 313 151 158 l 17 313 l 17 447 l 92 447 l 92 479 q 93 521 92 507 l 17 521 l 17 657 l 115 657 q 279 901 160 810 q 593 992 399 992 q 743 969 672 992 l 685 806 q 593 817 644 817 q 301 657 390 817 l 618 657 l 588 521 l 260 521 q 258 479 258 507 q 260 447 258 457 l 565 447 l 538 313 l 297 313 q 593 150 379 150 q 710 171 651 150 z "},"™":{"ha":1025,"x_min":18,"x_max":957,"o":"m 282 863 l 282 568 l 150 568 l 150 863 l 18 863 l 18 974 l 415 974 l 415 863 l 282 863 m 599 975 l 708 840 l 818 975 l 957 975 l 957 568 l 822 568 l 822 689 l 832 807 l 721 658 l 693 658 l 585 807 l 594 689 l 594 568 l 460 568 l 460 975 l 599 975 z "},"−":{"ha":640,"x_min":31,"x_max":574,"o":"m 31 328 l 31 485 l 574 485 l 574 328 l 31 328 z "},"ﬁ":{"ha":789,"x_min":-6,"x_max":665,"o":"m 292 685 l 651 685 l 651 0 l 482 0 l 482 540 l 292 540 l 292 0 l 122 0 l 122 540 l -6 540 l -6 685 l 122 685 l 122 721 q 174 881 122 814 q 303 975 225 949 q 480 990 382 1001 q 665 928 578 979 l 603 801 q 456 851 529 846 q 338 820 383 856 q 292 721 292 785 l 292 685 z "},"ﬂ":{"ha":792,"x_min":-8,"x_max":653,"o":"m 281 0 l 111 0 l 111 526 l -8 526 l -8 675 l 111 675 l 111 721 q 186 920 111 851 q 372 989 261 989 q 653 910 518 989 l 653 0 l 485 0 l 485 829 q 383 854 438 854 q 310 818 339 854 q 281 721 281 782 l 281 675 l 426 675 l 426 526 l 281 526 l 281 0 z "}}}
